<svg xmlns="http://www.w3.org/2000/svg" fill="none" viewBox="0 0 200 200" height="200" width="200">
<path stroke-miterlimit="10" stroke-width="0.932052" stroke="#CDCFCF" d="M184 6.68665H16.7899V193.443H184V6.68665Z"></path>
<path fill="#B5B4B2" d="M121.339 141.967C155.053 131.022 164.32 100.637 164.32 100.637C164.32 100.637 162.589 157.466 113.643 166.946C55.8827 178.131 33.6999 120.477 36.496 99.0929C36.496 99.0929 48.2665 134.271 81.0748 143.565"></path>
<path stroke-linecap="round" stroke-miterlimit="10" stroke-width="1.99725" stroke="url(#paint0_linear_2561_694)" d="M175.665 185.108V15.0216L25.1516 15.0216V185.108H175.665Z"></path>
<path stroke-miterlimit="10" stroke-width="0.665751" stroke="#B5B4B2" d="M103.843 136.082C103.843 136.082 113.297 133.792 118.969 139.677C119.688 140.423 120.274 141.115 120.753 141.781C124.162 146.415 122.564 149.317 121.978 152.167C121.339 155.416 120.62 157.333 121.526 158.904C122.405 160.449 119.395 157.732 113.404 158.025C107.438 158.345 104.376 157.147 101.234 153.578C98.0913 150.01 97.7984 145.216 97.7984 145.216"></path>
<path stroke-miterlimit="10" stroke-width="0.665751" stroke="#B5B4B2" d="M101.846 107.588C101.846 107.588 94.3368 113.526 90.6885 120.663C89.3304 123.326 88.5315 126.175 88.851 128.918C90.076 139.038 93.2183 141.488 100.994 137.919C108.77 134.351 113.271 118.932 101.82 107.561L101.846 107.588Z"></path>
<path stroke-miterlimit="10" stroke-width="0.665751" stroke="#B5B4B2" d="M87.7591 137.973C87.7591 137.973 79.3973 134.351 77.5864 126.841C75.7756 119.332 75.8555 117.175 75.8555 117.175C75.8555 117.175 82.3 112.914 90.7151 120.636"></path>
<path stroke-miterlimit="10" stroke-width="0.665751" stroke="#B5B4B2" d="M83.8711 141.514C83.8711 141.514 71.0088 142.926 64.378 135.043C57.7471 127.161 53.5395 121.622 56.5753 121.329C59.6112 121.036 68.2926 123.406 70.7958 124.604C73.299 125.803 78.6783 129.584 78.6783 129.584"></path>
<path stroke-miterlimit="10" stroke-width="0.665751" stroke="#B5B4B2" d="M77.4796 125.883C77.4796 125.883 71.2482 123.486 66.4814 117.84C61.7146 112.195 60.969 110.384 62.3005 110.144C63.632 109.905 72.846 109.212 79.4769 115.896"></path>
<path stroke-miterlimit="10" stroke-width="0.665751" stroke="#B5B4B2" d="M80.4358 115.896C80.4358 115.896 79.7168 111.582 82.0603 112.115C84.4037 112.674 89.064 112.354 92.659 117.334"></path>
<path stroke-miterlimit="10" stroke-width="0.665751" stroke="#B5B4B2" d="M98.6507 111.077C98.6507 111.077 97.0529 101.49 106.134 91.3704C106.134 91.3704 110.181 92.8883 111.247 98.1876"></path>
<path stroke-miterlimit="10" stroke-width="0.665751" stroke="#B5B4B2" d="M80.3824 112.728C80.3824 112.728 76.601 101.037 84.6166 93.4476C84.6166 93.4476 94.4964 95.7112 98.2778 106.416"></path>
<path stroke-miterlimit="10" stroke-width="0.665751" stroke="#B5B4B2" d="M104.562 111.077C104.562 111.077 110.048 96.6165 118.037 88.7074C118.037 88.7074 125.121 95.6845 118.517 114.858"></path>
<path stroke-miterlimit="10" stroke-width="0.665751" stroke="#B5B4B2" d="M108.424 124.578C108.424 124.578 117.371 115.231 123.07 110.997C128.769 106.762 133.909 104.259 134.361 102.928C134.814 101.596 136.598 102.395 134.574 108.866C132.551 115.364 124.056 131.875 107.811 135.629"></path>
<path stroke-miterlimit="10" stroke-width="0.665751" stroke="#B5B4B2" d="M116.014 137.707C116.014 137.707 133.083 135.709 135.64 128.333C135.64 128.333 131.166 127.081 121.313 128.626"></path>
<path stroke-miterlimit="10" stroke-width="0.665751" stroke="#B5B4B2" d="M66.8812 85.538C66.8812 85.538 64.5643 103.46 78.3321 115.071"></path>
<path stroke-miterlimit="10" stroke-width="0.665751" stroke="#B5B4B2" d="M63.6321 73.7142C63.6321 73.7142 62.9663 73.9273 62.2207 74.4865M62.2207 74.4865C60.9158 75.4984 59.3979 77.6022 60.7827 81.65C62.9397 87.9879 66.2152 85.8575 66.2152 85.8575C66.2152 85.8575 67.3869 85.3249 68.319 85.8043C69.251 86.2836 74.6303 85.7776 76.0683 80.0255C77.4797 74.2734 71.8608 68.7344 71.3814 73.874C71.3814 73.874 71.2483 69.1605 65.5761 70.2789C65.5761 70.2789 61.3952 71.0246 62.2207 74.4865Z"></path>
<path stroke-miterlimit="10" stroke-width="0.665751" stroke="#B5B4B2" d="M72.3932 84.7925C72.3932 84.7925 75.722 76.191 70.5025 73.2883C65.283 70.3857 62.5401 71.7438 63.2857 76.484"></path>
<path stroke-miterlimit="10" stroke-width="0.665751" stroke="#B5B4B2" d="M124.242 109.691L121.1 102.874"></path>
<path stroke-miterlimit="10" stroke-width="0.665751" stroke="#B5B4B2" d="M116.36 90.7309C116.36 90.7309 113.404 80.2386 115.002 78.2946C116.626 76.3506 127.438 96.9889 127.065 108.759"></path>
<path stroke-miterlimit="10" stroke-width="0.665751" stroke="#B5B4B2" d="M135.693 107.109C135.693 107.109 154.973 85.7515 153.509 82.0765C150.1 82.0765 135.347 98.8535 132.338 104.952"></path>
<path stroke-miterlimit="10" stroke-width="0.665751" stroke="#B5B4B2" d="M127.81 107.694C127.81 107.694 131.911 91.8228 134.841 85.5913C137.77 79.3599 144.321 65.7786 146.691 62.1302C149.061 58.4819 151.964 50.0935 153.801 51.2386C155.612 52.357 151.325 64.1808 148.369 70.0926C145.413 76.0311 134.388 89.5592 133.19 93.4472C131.965 97.3352 129.035 106.15 129.035 106.15C129.035 106.15 129.435 105.138 130.127 103.54C132.204 98.7466 136.891 88.5473 141.525 83.7272C147.703 77.3094 151.991 71.2643 154.227 68.4149C156.491 65.5655 157.796 63.728 157.663 65.2992C157.53 66.8704 153.322 78.2681 146.345 87.3489"></path>
<path stroke-miterlimit="10" stroke-width="0.665751" stroke="#B5B4B2" d="M119.023 83.1412C119.023 83.1412 114.043 60.1595 115.241 60.7986C116.44 61.4377 118.384 64.8198 121.739 72.9952C125.068 81.1706 129.275 96.2965 128.104 106.842"></path>
<path stroke-miterlimit="10" stroke-width="0.665751" stroke="#B5B4B2" d="M130.048 98.8001C130.048 98.8001 131.805 91.0507 133.19 84.8992C133.51 83.4878 133.803 82.1297 134.042 81.0112C134.335 79.7063 134.548 78.6678 134.681 78.0553C135.374 74.5401 142.564 37.7107 144.588 36.2727C146.612 34.8347 149.887 47.0313 146.452 56.192C143.043 65.3527 133.137 89.4796 133.137 89.4796C133.137 89.4796 129.568 29.3489 132.924 27.4582C136.279 25.5674 137.424 52.4105 135.693 68.6815L131.486 96.3235"></path>
<path stroke-miterlimit="10" stroke-width="0.665751" stroke="#B5B4B2" d="M128.157 100.425C128.157 100.425 130.607 93.3944 125.707 79.5201C120.807 65.6459 116.147 48.4695 117.878 45.9929C119.608 43.5163 127.171 63.5954 128.343 71.1317C129.488 78.668 132.923 90.0656 128.183 100.451L128.157 100.425Z"></path>
<path stroke-miterlimit="10" stroke-width="0.665751" stroke="#B5B4B2" d="M131.938 59.1212C131.938 59.1212 128.503 37.8438 124.854 35.8199C121.206 33.796 127.304 66.1515 127.304 66.1515"></path>
<path stroke-miterlimit="10" stroke-width="0.665751" stroke="#B5B4B2" d="M63.6591 156.214C63.6591 156.214 39.1594 156.96 49.3587 163.91C59.5581 170.861 68.1329 166.946 69.3579 165.455C70.5829 163.937 63.8721 163.165 63.8721 163.165C63.8721 163.165 70.5829 164.31 74.2046 163.351"></path>
<path stroke-miterlimit="10" stroke-width="0.665751" stroke="#B5B4B2" d="M86.241 167.532C86.241 167.532 77.5064 169.529 82.7258 173.044C87.9453 176.56 95.9343 172.086 95.9343 172.086C95.9343 172.086 87.1464 175.92 91.2208 177.412C95.2686 178.903 124.881 177.758 127.118 173.604C129.328 169.476 113.643 166.946 113.643 166.946"></path>
<path stroke-miterlimit="10" stroke-width="0.665751" stroke="#B5B4B2" d="M134.894 158.371C134.894 158.371 149.94 159.223 149.487 165.295C149.035 171.367 123.869 172.512 125.014 164.044"></path>
<path stroke-miterlimit="10" stroke-width="0.665751" stroke="#B5B4B2" d="M91.1411 137.387C91.1411 137.387 87.3063 138 83.8711 141.515C80.4358 145.03 80.1429 145.083 77.1337 145.589C74.1511 146.122 71.0354 148.785 71.0354 148.785C71.0354 148.785 82.1667 156.082 92.8987 149.158C103.631 142.234 100.169 138.479 100.169 138.479"></path>
<defs>
<linearGradient gradientUnits="userSpaceOnUse" y2="100.078" x2="176.65" y1="100.078" x1="24.1397" id="paint0_linear_2561_694">
<stop stop-color="#694E40" offset="0.02"></stop>
<stop stop-color="#694E40" offset="0.38"></stop>
<stop stop-color="#938771" offset="0.8"></stop>
<stop stop-color="#694E40" offset="1"></stop>
</linearGradient>
</defs>
</svg>
