<svg xmlns="http://www.w3.org/2000/svg" fill="none" viewBox="0 0 200 200" height="200" width="200">
<path fill="#B5B4B2" d="M31.0533 141.159C27.9148 139.461 24.5521 138.18 21.7018 135.938C13.8235 129.757 13.8875 121.975 21.8619 115.89C22.3423 115.538 22.7907 115.09 23.3351 114.865C26.3135 113.584 27.2423 112.56 24.1358 109.773C19.0117 105.13 19.7163 98.9487 25.3528 94.2729C27.0822 92.8318 29.0357 91.7109 30.8612 90.4299C19.4921 83.5764 18.5633 73.7445 35.7611 66.0583C34.4481 65.0655 33.2311 64.2329 32.1102 63.3041C26.922 58.9486 26.89 53.2481 32.1102 48.9246C35.3128 46.2665 39.0277 44.6652 43.0309 43.6083C57.5706 39.8613 72.0142 39.8613 86.2336 45.1456C88.8276 46.1063 91.2296 47.4834 93.2472 49.405C97.9229 53.8245 97.8589 58.7244 92.991 63.0479C91.8381 64.0727 90.525 64.9374 89.0518 66.0583C94.1759 68.8125 99.9726 70.7661 101.83 76.883C104.008 84.0567 98.4994 87.0992 93.8877 90.558C96.1295 91.839 98.3393 93.088 100.197 94.8174C105.257 99.5892 105.385 105.386 100.549 110.318C99.7804 111.086 97.8589 111.471 98.5635 112.816C99.0759 113.777 100.677 114.513 101.862 114.705C103.752 114.994 105.705 114.769 107.627 114.705C109.164 114.641 108.748 113.424 108.748 112.56C108.748 109.261 109.548 106.154 110.445 103.016C111.085 100.742 112.431 100.006 114.768 100.518C119.412 101.543 123.736 103.24 127.483 106.154C129.052 107.371 129.692 107.115 130.717 105.578C132.318 103.208 134.24 101.03 136.001 98.7565C137.507 96.835 138.916 96.9631 140.357 98.7886C142.118 101.062 144.04 103.24 145.641 105.642C146.73 107.275 147.467 107.243 148.94 106.09C152.495 103.336 156.594 101.767 160.949 100.614C164.024 99.8134 165.465 100.934 166.138 103.785C166.778 106.475 167.739 109.101 167.483 111.919C167.291 114.065 167.931 114.93 170.237 114.737C173.504 114.449 176.674 115.282 179.813 116.114C182.631 116.883 183.688 118.196 182.919 121.335C180.805 129.853 176.29 136.579 168.892 141.895C173.6 141.895 178.307 141.895 183.015 141.895C193.135 141.895 194 142.76 194 153.072C194 156.211 194 159.317 194 162.456C193.936 167.644 191.758 169.854 186.538 170.046C179.46 170.302 179.524 170.302 179.428 177.508C179.364 181.159 179.973 184.617 180.741 188.172C182.022 194.289 180.133 196.403 173.984 196.403C169.532 196.403 165.081 196.435 160.629 196.403C155.761 196.403 153.327 193.841 154.608 189.069C156.594 181.831 151.342 176.899 149.676 170.878C149.356 169.725 148.075 170.046 147.146 170.046C115.377 170.046 83.6075 170.046 51.806 170.014C50.0125 170.014 49.2439 170.75 48.6675 172.287C47.6426 174.978 46.5538 177.636 45.3688 180.262C44.0878 183.048 43.5113 185.642 44.376 188.877C45.7211 193.809 43.3512 196.435 38.3231 196.467C33.7435 196.467 29.1638 196.467 24.6161 196.467C18.9796 196.467 16.8659 194.257 18.3071 188.524C19.5561 183.528 19.364 178.532 19.6522 173.536C19.8444 170.526 18.6914 169.757 16.0333 170.11C14.8483 170.27 13.6313 170.174 12.4144 170.11C7.22621 169.918 5.08048 167.676 5.04845 162.424C5.01643 157.972 4.9844 153.52 5.04845 149.069C5.11251 144.233 7.32228 142.055 12.1582 141.991C18.4032 141.895 24.6482 141.863 30.9252 141.799C31.3736 141.799 31.8219 141.799 32.3023 141.799C31.886 141.575 31.4697 141.383 31.0533 141.159ZM99.5883 165.85C128.251 165.85 156.882 165.818 185.545 165.914C188.812 165.914 190.157 165.082 189.933 161.655C189.676 157.94 189.644 154.161 189.933 150.478C190.221 146.827 188.748 146.026 185.353 146.058C166.586 146.187 147.787 146.123 129.02 146.123C103.976 146.123 78.9317 146.123 53.9197 146.123C40.3088 146.123 26.6978 146.187 13.1189 146.09C10.3968 146.09 9.14775 146.859 9.30787 149.773C9.50003 153.617 9.59611 157.492 9.30787 161.335C9.01964 165.114 10.4929 165.978 14.0477 165.978C42.5826 165.85 71.1175 165.914 99.6203 165.914L99.5883 165.85ZM95.3929 116.435C93.8877 115.186 92.8629 115.186 91.6139 115.73C89.9806 116.435 88.2832 117.075 86.5538 117.524C68.6835 122.231 50.9412 122.103 33.4232 115.794C32.4624 115.442 31.6298 115.154 30.7011 115.602C27.7547 116.979 24.8724 118.452 22.5345 120.79C19.2038 124.153 19.2038 127.868 22.6306 131.231C25.3207 133.889 28.6514 135.554 32.1422 136.899C46.0734 142.311 60.613 142.408 75.1527 141.127C82.6787 140.454 90.0446 138.596 96.8981 135.106C98.6275 134.209 99.204 133.568 97.8909 131.743C95.6171 128.604 94.4962 124.922 93.4713 121.175C92.8949 118.997 93.055 117.46 95.3929 116.435ZM62.0542 116.627C68.4273 116.499 74.8004 116.179 81.0134 114.705C86.8741 113.328 92.6387 111.631 97.2824 107.532C99.3641 105.706 100.869 103.56 99.4922 100.582C97.3465 95.9062 89.6283 92.5115 84.6643 93.8886C69.9645 97.8919 55.2327 97.8919 40.565 93.8886C37.3944 93.0239 34.7043 93.088 32.0141 94.7854C28.9076 96.7389 25.0325 98.3722 25.1606 102.824C25.2887 106.987 28.8115 108.717 32.0141 110.414C41.3976 115.41 51.6779 116.275 62.0222 116.627H62.0542ZM60.3248 92.5115C68.3632 92.5115 74.4801 92.2233 80.4689 90.7821C85.8172 89.4691 91.1335 87.9319 95.457 84.2169C97.6027 82.3914 98.9798 80.1816 97.6347 77.2673C95.7131 73.0719 85.2408 68.0759 80.6931 69.1328C69.4201 71.6948 58.083 72.2073 46.778 69.5491C39.38 67.7877 33.7755 71.1184 28.6194 75.5379C25.8011 77.9719 25.9932 80.662 28.6194 83.3842C30.9893 85.8822 34.0317 87.3554 37.1703 88.5404C45.2407 91.6148 53.6635 92.5756 60.3248 92.5115ZM62.9829 45.2737C54.1759 45.2096 46.1374 46.2024 38.6114 49.7893C35.8252 51.1344 32.5265 52.5435 32.5906 56.2264C32.6546 59.8453 35.9532 61.2224 38.7395 62.5995C42.2943 64.361 46.1054 65.4178 50.0125 66.0263C62.3104 67.9158 74.4161 67.6916 86.0414 62.6636C88.9557 61.4146 92.4145 59.9094 92.3505 56.0663C92.2864 52.4474 89.0198 51.0383 86.2015 49.7252C78.6435 46.2024 70.605 45.1776 62.9509 45.2737H62.9829ZM138.243 102.664C132.703 109.645 127.675 116.595 125.337 125.114C122.967 133.761 125.657 138.693 134.272 141.159C139.748 142.728 144.873 141.319 148.972 137.572C152.815 134.049 152.335 129.437 151.021 124.857C148.62 116.499 143.656 109.645 138.211 102.696L138.243 102.664ZM34.6402 170.078C31.7579 170.078 28.8756 170.078 25.9933 170.078C24.9044 170.078 23.8155 169.95 23.8155 171.647C23.8155 177.86 24.1998 184.073 22.2463 190.158C21.6698 191.951 22.8868 192.304 24.4881 192.272C28.8115 192.207 33.135 192.111 37.4264 192.368C40.2767 192.528 40.9493 191.183 40.1486 189.005C38.7395 185.226 39.9885 182.023 41.5578 178.757C42.5826 176.611 43.4153 174.337 44.376 172.159C45.0806 170.558 44.6002 170.014 42.9028 170.046C40.1486 170.11 37.3944 170.046 34.6402 170.046V170.078ZM165.369 170.078C162.038 170.078 159.284 170.142 156.53 170.078C154.384 170.014 154.192 170.622 154.961 172.576C157.17 178.34 161.238 183.689 158.868 190.542C158.259 192.272 159.765 192.336 161.046 192.336C165.369 192.304 169.692 192.047 173.984 192.336C177.251 192.56 177.283 190.83 176.738 188.653C176.066 185.994 175.201 183.4 175.265 180.582C175.329 177.251 176.386 172.832 174.721 170.846C172.767 168.54 168.187 170.462 165.369 170.078ZM151.598 141.351C161.654 140.71 170.109 137.796 175.393 128.957C176.962 126.331 179.684 122.904 178.179 120.566C176.578 118.132 172.319 118.837 169.084 118.837C167.707 118.837 167.002 119.221 166.65 120.758C165.049 127.42 161.078 132.608 155.793 136.803C154.288 137.988 152.911 139.269 151.598 141.319V141.351ZM124.792 141.127C123.511 139.365 122.102 137.988 120.501 136.707C116.081 133.216 112.687 128.957 110.637 123.673C108.619 118.484 108.427 118.356 102.823 118.997C101.99 119.093 101.19 119.509 100.357 119.509C97.3785 119.573 97.5386 121.142 98.2752 123.32C102.214 134.625 112.11 141.383 124.728 141.127H124.792ZM156.05 130.878C161.526 125.53 163.64 119.509 163.576 112.848C163.511 104.425 161.654 103.496 154.256 107.628C153.327 108.14 152.495 108.845 151.534 109.389C149.708 110.382 149.42 111.375 150.573 113.328C153.616 118.516 155.985 123.961 156.05 130.846V130.878ZM120.373 130.494C120.373 125.594 121.878 121.271 123.896 117.075C127.29 110.03 127.162 109.709 119.796 106.539C118.611 106.026 117.298 105.738 116.082 105.226C114.8 104.713 114.224 104.905 113.808 106.379C111.854 113.616 112.911 124.537 120.373 130.494ZM92.6387 141.767H108.267C106.186 140.198 104.456 138.981 102.791 137.636C102.118 137.091 101.67 137.123 100.933 137.508C98.3392 138.917 95.6491 140.23 92.6387 141.735V141.767Z"></path>
<path fill="#B5B4B2" d="M49.2438 17.0269C49.436 16.3543 49.468 15.5537 49.8523 14.9772C51.3575 12.6714 51.5176 10.5256 49.9484 8.09169C49.1477 6.84269 48.6033 4.85709 50.4928 4.02443C52.7346 3.03163 52.9588 5.04924 53.8235 6.52242C55.617 9.69297 56.3855 12.6393 54.0477 15.8099C53.2791 16.8347 53.5673 17.7314 54.1437 18.7562C54.7843 19.8771 55.2647 21.1261 55.6169 22.3751C55.9052 23.4 55.3287 24.2967 54.3679 24.681C53.5993 25.0012 52.5105 25.1294 52.1262 24.2647C51.0693 21.8948 49.5961 19.685 49.2438 16.9948V17.0269Z"></path>
<path fill="#B5B4B2" d="M69.7405 16.9951C69.9646 16.1944 69.9966 15.1376 70.509 14.369C71.9182 12.3193 71.726 10.5259 70.509 8.41221C69.7404 7.06713 68.9718 4.95344 70.9895 3.99267C73.2633 2.93583 73.4234 5.17761 74.256 6.58674C76.1776 9.75729 76.658 12.7677 74.4162 15.9062C73.5195 17.1552 74.2881 18.116 74.8005 19.1728C75.377 20.3258 76.1135 21.4787 76.0175 22.8558C75.9534 23.7845 75.473 24.4891 74.6404 24.7453C73.8077 25.0015 72.8149 25.0015 72.4306 24.0728C71.4378 21.7989 70.0287 19.6532 69.7725 16.9631L69.7405 16.9951Z"></path>
</svg>
