<svg xmlns="http://www.w3.org/2000/svg" fill="none" viewBox="0 0 200 200" height="200" width="200">
<path fill="#B5B4B2" d="M33.9153 25.8792C31.6506 24.8812 29.2707 24.6893 26.8524 24.5741C25.4322 24.4974 23.7432 24.7277 23.7048 22.7316C23.7048 20.8124 25.2403 20.6588 26.7373 20.6972C27.2363 20.6972 27.7353 20.6972 28.2727 20.4285C25.3554 18.5092 21.9775 18.2022 18.638 17.6648C17.0258 17.3961 14.4156 18.0486 14.7994 15.2081C15.1449 12.7131 17.3713 13.5959 18.9834 13.7879C34.376 15.6687 45.4693 23.1539 50.8049 38.1625C50.8432 38.3161 51.0736 38.4312 51.4958 38.8151C52.0716 35.1301 51.7645 31.7522 51.2655 28.3359C50.8049 25.0731 51.3807 24.5741 54.605 25.0732C54.797 25.4954 54.9505 25.9176 55.1424 26.3015C55.5647 25.7641 55.3343 25.1883 55.1424 24.6509C54.4131 21.8872 52.916 19.4689 51.1503 17.2425C50.2291 16.1294 49.6149 14.9778 51.0352 13.8646C52.3403 12.8666 53.2999 13.7111 54.106 14.7091C54.9889 15.7455 55.795 16.8587 57.0233 18.4325C57.5223 13.8646 55.8717 10.4483 54.0676 7.14719C53.3383 5.84209 52.3786 4.65213 51.4574 3.46219C50.6513 2.42579 50.5746 1.38939 51.611 0.54491C52.6858 -0.337952 53.7221 0.161061 54.5282 1.04392C56.4859 3.23189 57.9829 5.72693 59.2113 8.4139C59.5567 9.18161 59.4416 10.2564 60.7083 10.7938C60.8234 9.83417 60.977 8.98968 60.977 8.14521C60.977 6.80172 61.1305 5.61178 62.7427 5.49662C64.5084 5.38147 64.8923 6.72496 65.0458 8.06845C65.6216 13.8262 65.6216 19.5457 63.8559 25.1499C63.3953 26.6469 61.8982 28.1824 64.662 29.3339C65.8519 29.8329 65.1994 31.4451 64.3933 32.4815C62.973 34.3624 61.1305 35.9746 60.1325 38.2777C61.7447 38.7383 62.7811 37.7787 63.9326 37.2797C71.3794 34.2856 79.0949 33.2108 87.0406 34.2856C88.4609 34.4775 90.1115 34.6311 89.8812 36.6271C89.6125 38.6615 87.9619 38.3161 86.5416 38.1625C79.5938 37.3181 72.8765 38.1241 66.3126 40.5808C64.9691 41.0798 63.6639 41.8092 61.6679 42.7688C65.4681 43.191 68.4621 43.3062 71.3794 43.8819C83.5475 46.1467 92.0691 53.3248 97.6734 64.1494C99.2472 67.1819 100.552 70.3678 101.55 73.669C101.934 75.0508 102.241 76.356 100.514 76.8934C98.7865 77.4307 98.2492 76.0873 97.7885 74.7821C97.1744 73.0164 96.5218 71.2507 95.9076 69.5233C94.9096 69.9072 94.948 70.5982 94.7945 71.1356C94.4874 72.2871 93.7197 72.8245 92.5298 72.6326C91.3014 72.4023 91.0327 71.481 91.0711 70.3678C91.1095 68.5637 91.1863 66.7596 91.1479 64.9171C91.1479 63.8039 91.0327 62.6908 90.1882 61.8079C89.1902 62.4989 89.6508 63.4969 89.5741 64.3413C89.4205 65.608 88.9215 66.5293 87.578 66.4909C86.2345 66.4909 85.6587 65.5313 85.6971 64.2262C85.7739 61.5776 85.39 59.0058 84.392 56.5107C83.7779 54.9753 83.2405 53.2864 81.4748 52.1732C81.7051 54.4763 81.9738 56.5491 82.1273 58.6219C82.2041 59.927 81.9354 61.117 80.2848 61.1937C78.6343 61.2705 78.3655 60.119 78.2888 58.7755C78.1352 56.0501 77.713 53.3631 76.1776 50.9833C75.6786 50.2155 75.0644 49.2175 74.0664 49.7933C72.9148 50.4458 74.2967 51.1368 74.4502 51.7893C74.7957 53.2096 75.2563 54.745 73.4906 55.4359C71.5713 56.1653 71.0723 54.5915 70.6885 53.2096C70.1127 51.1368 68.8843 49.6398 66.8115 48.5266C66.0438 49.2559 66.4277 50.8681 64.9307 51.1368C63.4337 51.4055 62.7811 50.2539 61.8215 49.6397C60.6315 48.9104 59.5183 47.9892 57.7142 48.6034C59.6335 50.3307 61.476 51.8277 63.1649 53.5167C71.2642 61.8847 72.5309 71.6346 68.846 82.3441C68.3853 83.6492 67.7712 84.9159 66.0823 84.3401C64.3933 83.7643 64.7004 82.3441 65.161 81.0773C66.4277 77.5459 67.1954 73.8993 66.8115 69.8304C65.161 70.9436 65.0842 72.8245 64.2014 74.168C63.3953 75.3963 62.5892 76.7782 60.9002 75.8185C59.3648 74.9357 59.9789 73.6306 60.6315 72.4022C62.5124 68.986 63.7407 65.4161 63.1649 61.424C63.1266 61.0402 62.8962 60.6947 62.6275 60.0422C61.5911 62.4221 60.7083 64.5716 59.7103 66.6828C59.0577 68.0647 58.0597 69.2163 56.4091 68.2567C54.8737 67.3354 55.5263 66.0303 56.2172 64.8404C57.9445 61.7695 59.1729 58.6219 57.791 55.0521C57.6375 54.7066 57.3688 54.3995 56.9465 53.8238C56.3708 56.1269 55.9485 58.1229 55.3344 60.0422C54.9121 61.4241 54.2212 62.9211 52.3787 62.1918C50.7665 61.5392 51.0736 60.1573 51.611 58.8522C52.3403 56.9714 52.7241 54.9753 52.5706 52.9409C52.4938 52.058 52.5706 50.9449 51.6878 50.4842C50.6514 49.9852 50.0372 50.9833 49.3846 51.5206C37.6771 60.8099 29.6162 72.671 24.7412 86.72C20.1734 99.9245 20.2501 99.9629 29.7697 109.981C33.0197 113.385 36.7942 114.05 41.0934 111.978C48.0795 108.6 46.1602 108.523 51.5725 113.398C59.9022 120.883 68.155 128.445 76.3695 136.045C77.7898 137.389 79.21 138.08 81.206 138.003C83.6243 137.849 86.0426 137.888 88.4609 138.003C92.4913 138.195 95.3319 141.15 95.3319 144.989C95.3319 148.559 92.4146 151.591 88.6144 151.898C87.0022 152.013 85.39 151.898 83.7778 151.975C81.3596 152.052 79.7858 153.395 79.21 155.66C78.5575 158.078 80.3232 159.076 82.1273 159.959C85.5052 161.61 89.1135 161.84 92.7601 161.802C108.229 161.725 123.583 163.068 138.784 165.986C144.734 167.137 150.492 169.018 155.712 172.243C158.86 174.162 161.585 176.58 162.967 180.112C163.735 182.069 164.579 181.57 165.846 180.764C170.836 177.501 175.596 173.97 179.933 169.824C180.586 169.21 181.238 168.558 181.891 167.943C182.927 166.984 184.079 166.216 185.269 167.56C186.305 168.711 185.653 169.824 184.693 170.707C182.467 172.742 180.279 174.853 177.937 176.772C135.56 212.432 69.4985 206.29 34.683 163.452C6.62334 128.867 11.8438 77.1621 46.2754 48.9104C46.6593 48.6034 47.0047 48.2579 47.8492 47.5286C44.74 46.3386 42.1681 46.7225 39.5196 47.7973C38.1377 48.3347 36.6023 50.1771 35.2972 48.1427C33.8769 45.9548 36.1801 45.3022 37.4468 44.3042C37.6003 44.189 37.6387 43.9587 37.8307 43.5365C34.4527 43.2678 32.0344 44.8416 29.8849 46.9912C28.8868 47.9892 28.0808 49.8317 26.2383 48.565C24.4725 47.3366 25.6625 45.9164 26.9676 44.1123C23.9735 44.6113 22.2846 46.1083 20.5188 47.4518C19.7895 47.9892 19.1369 48.6417 18.4076 49.1791C17.4096 49.9468 16.3732 50.1772 15.452 49.1407C14.4924 48.066 14.953 46.9528 15.8742 46.2235C17.7551 44.6113 19.7895 43.1143 21.8623 41.5021C21.0562 40.5041 20.135 41.003 19.3289 41.003C17.9854 41.003 16.8338 40.8111 16.7571 39.199C16.7187 37.6252 17.8319 37.1645 19.1754 37.0878C23.0139 36.8958 26.8524 36.7423 30.6526 37.3565C31.3819 37.4716 32.4951 38.2777 32.4183 36.4352C32.3031 33.7482 34.0305 33.825 35.9114 34.324C38.9822 35.1685 41.7076 36.6271 44.1258 38.6615C44.74 39.1989 45.1622 40.1202 46.6209 40.0818C43.1278 35.1301 39.1741 31.4067 33.1476 30.4855C31.5355 30.2552 28.8868 31.2532 29.0404 28.3743C29.1939 25.6873 31.8809 26.9156 33.4547 26.4934C33.877 26.6469 34.2992 26.7621 34.7214 26.455C34.4911 26.2631 34.2224 26.0328 33.9921 25.8408L33.9153 25.8792ZM58.2516 141.841C48.8856 141.841 39.4812 141.841 30.1152 141.841C26.2382 141.841 26.2382 141.841 27.8888 145.334C35.182 160.765 46.5057 172.626 61.0154 181.263C92.4146 199.957 124.735 201.108 157.746 185.409C160.011 184.334 160.126 183.106 159.09 181.186C157.593 178.423 155.29 176.542 152.603 175.045C147.728 172.319 142.431 170.669 136.942 169.671C122.24 166.945 107.385 165.679 92.453 165.794C88.1922 165.794 84.0082 165.295 80.0929 163.452C76.6766 161.84 74.8341 159.153 75.0644 156.236C75.3331 152.666 77.8281 149.557 81.2828 148.405C83.1637 147.791 85.083 147.906 86.9638 147.945C89.1518 147.945 91.2246 147.753 91.2246 144.951C91.2246 142.187 89.2286 141.841 87.0023 141.88C77.4059 141.88 67.848 141.88 58.2516 141.88V141.841ZM71.8784 137.389C70.7269 136.275 69.7288 135.277 68.6924 134.356C62.8579 129.059 57.0233 123.8 51.2271 118.465C47.798 115.317 44.0235 114.792 39.9034 116.891C39.9034 116.891 39.558 117.083 39.366 117.16C37.869 117.697 37.7922 118.388 38.9438 119.463C41.4388 121.804 43.8571 124.261 46.3138 126.641C47.2734 127.6 47.8108 128.714 46.6592 129.788C45.5844 130.825 44.4713 130.403 43.5117 129.366C42.8975 128.714 42.2065 128.138 41.554 127.485C35.4507 121.305 29.3858 115.125 23.2826 108.945C22.63 108.254 22.131 107.256 20.8643 107.218C20.7491 107.602 20.5956 107.947 20.5572 108.331C20.1734 117.774 21.4017 127.025 24.2422 136.084C24.818 137.888 25.9695 137.964 27.4666 137.964C41.4004 137.964 55.2959 137.964 69.2298 137.964C69.9975 137.964 70.842 138.195 71.9168 137.389H71.8784ZM46.6977 41.1566C46.6977 41.1566 46.8512 41.0415 46.8512 40.9647C46.8512 40.8879 46.736 40.8495 46.6977 40.7727C46.6209 40.8111 46.5441 40.8879 46.5441 40.9263C46.5441 41.0031 46.6593 41.0415 46.6977 41.1182V41.1566ZM60.3245 38.5848C60.3245 38.5848 60.1709 38.3928 60.0941 38.3928C59.9406 38.3928 59.8254 38.508 59.7103 38.5848C59.7871 38.6616 59.8638 38.7767 59.9022 38.7767C60.0558 38.7767 60.1709 38.6616 60.3245 38.5848Z"></path>
<path fill="#B5B4B2" d="M146.308 66.6827C159.09 66.6827 169.339 77.0084 169.262 89.7907C169.185 102.381 158.936 112.668 146.384 112.745C133.602 112.784 123.161 102.266 123.238 89.4452C123.315 76.8932 133.679 66.6827 146.308 66.7211V66.6827ZM145.847 108.715C156.48 108.945 165.155 100.539 165.385 89.8675C165.577 79.5418 157.017 70.79 146.538 70.5597C136.174 70.3294 127.537 78.7357 127.23 89.3301C126.923 99.7709 135.291 108.484 145.847 108.715Z"></path>
<path fill="#B5B4B2" d="M127.882 141.842C127.268 141.842 127.153 141.842 127.076 141.842C125.503 141.688 123.161 142.571 123.008 140.038C122.854 137.428 125.234 138.119 126.808 137.927C129.188 137.62 131.644 137.735 133.947 136.89C135.099 136.468 136.135 135.969 136.558 134.664C137.21 132.629 138.63 132.668 140.089 133.704C143.429 136.123 147.19 137.389 151.259 137.85C152.564 138.003 154.1 138.157 153.946 139.961C153.793 141.919 152.219 141.919 150.76 141.727C147.459 141.305 144.235 140.652 141.279 139.001C140.434 138.541 139.628 137.927 138.554 138.809C135.291 141.42 131.299 141.496 127.921 141.804L127.882 141.842Z"></path>
<path fill="#B5B4B2" d="M159.167 154.662C157.708 154.163 154.868 155.852 154.752 152.743C154.637 149.864 157.363 151.054 158.936 150.785C160.932 150.44 162.929 150.324 164.925 149.941C166.422 149.634 167.727 149.096 168.302 147.33C168.878 145.565 170.337 145.411 171.68 146.448C175.173 149.096 179.204 150.286 183.465 150.747C184.731 150.9 185.653 151.322 185.614 152.743C185.538 154.355 184.424 154.662 183.081 154.585C179.511 154.393 176.133 153.395 172.909 151.86C172.064 151.476 171.335 150.785 170.222 151.668C167.036 154.201 163.159 154.355 159.167 154.624V154.662Z"></path>
<path fill="#B5B4B2" d="M88.653 115.202C89.3439 116.738 90.6874 117.774 89.344 119.079C88.2692 120.077 87.0408 119.732 85.966 119.156C84.2387 118.196 81.8972 118.465 81.0527 115.74C80.6689 114.434 78.9031 115.356 78.3658 116.507C77.6748 118.043 76.7535 119.002 75.1413 118.043C73.5675 117.083 74.2201 115.471 74.911 114.281C76.4081 111.709 79.0183 110.673 81.6285 111.364C84.2771 112.055 86.5802 111.901 89.1904 111.287C92.1077 110.634 95.2553 112.592 96.023 115.049C96.4068 116.239 96.6371 117.582 95.2553 118.196C93.9502 118.81 92.8754 118.273 92.4532 116.814C91.8774 114.933 90.4571 115.241 88.653 115.202Z"></path>
<path fill="#B5B4B2" d="M104.467 96.585C105.235 97.8517 106.387 98.9649 105.158 100.232C104.122 101.306 102.894 100.807 101.819 100.27C100.053 99.3871 97.7499 99.5791 96.9054 96.8921C96.5216 95.7405 94.7175 96.4315 94.1801 97.6982C93.4891 99.2336 92.5295 100.193 90.9941 99.1568C89.497 98.1588 90.1112 96.6234 90.8021 95.3567C92.1072 92.8616 95.7538 91.6717 99.0166 92.7849C100.514 93.2839 101.742 93.3606 103.277 92.7849C106.77 91.4798 110.455 92.9768 111.761 95.8941C112.375 97.2376 112.49 98.581 111.07 99.3104C109.803 100.001 108.767 99.3487 108.229 97.9669C107.577 96.2779 106.271 96.2011 104.467 96.5466V96.585Z"></path>
<path fill="#B5B4B2" d="M129.303 150.786C133.833 150.786 138.362 150.786 142.891 150.786C144.235 150.786 145.655 150.786 145.694 152.667C145.732 154.547 144.35 154.624 142.968 154.624C134.024 154.624 125.081 154.624 116.137 154.624C114.793 154.624 113.373 154.624 113.335 152.743C113.335 150.901 114.64 150.747 116.06 150.786C120.474 150.786 124.927 150.786 129.341 150.786H129.303Z"></path>
<path fill="#B5B4B2" d="M172.179 141.842C168.648 141.842 165.155 141.842 161.623 141.842C160.242 141.842 158.86 141.726 158.86 139.884C158.86 138.003 160.318 137.965 161.662 137.965C168.802 137.965 175.903 137.965 183.042 137.965C184.463 137.965 185.768 138.272 185.653 140.076C185.538 141.688 184.271 141.842 183.004 141.842C179.396 141.842 175.788 141.842 172.179 141.842Z"></path>
<path fill="#B5B4B2" d="M160.779 163.606C161.969 163.606 163.197 163.529 164.387 163.606C165.539 163.683 166.268 164.374 166.23 165.564C166.23 166.6 165.615 167.291 164.541 167.329C161.93 167.368 159.32 167.368 156.71 167.329C155.635 167.329 155.06 166.6 155.021 165.564C154.983 164.335 155.75 163.721 156.864 163.606C158.169 163.529 159.474 163.606 160.779 163.606Z"></path>
<path fill="#B5B4B2" d="M110.878 141.841C109.65 141.841 108.46 141.841 107.231 141.841C106.041 141.841 105.312 141.15 105.274 139.999C105.235 138.809 105.926 138.08 107.154 138.08C109.573 138.041 111.991 138.041 114.409 138.08C115.676 138.08 116.636 138.655 116.52 140.076C116.405 141.381 115.522 141.956 114.217 141.918C113.104 141.918 111.991 141.918 110.878 141.918V141.841Z"></path>
<path fill="#B5B4B2" d="M103.469 150.823C104.659 150.823 105.888 150.785 107.078 150.823C108.268 150.862 108.92 151.553 108.882 152.781C108.882 153.817 108.268 154.547 107.231 154.547C104.621 154.585 102.011 154.624 99.4006 154.547C98.4026 154.547 97.7501 153.856 97.7117 152.781C97.7117 151.553 98.4026 150.9 99.5541 150.823C100.859 150.747 102.164 150.823 103.469 150.823Z"></path>
<path fill="#B5B4B2" d="M159.781 86.6053C159.896 87.6033 159.589 88.4094 158.552 88.7549C157.362 89.1771 156.518 88.6397 156.172 87.5649C155.059 84.1103 152.987 81.6152 149.609 80.195C148.495 79.7343 148.265 78.7363 148.611 77.6999C148.956 76.7403 149.762 76.3948 150.799 76.5483C154.292 77.009 159.666 83.0354 159.781 86.6437V86.6053Z"></path>
</svg>
