<svg xmlns="http://www.w3.org/2000/svg" fill="none" viewBox="0 0 200 200" height="200" width="200">
<g clip-path="url(#clip0_2561_652)">
<path fill="#B5B4B2" d="M134.284 116.092C135.183 114.91 136.467 114.962 137.726 115.116C138.24 115.167 138.728 115.347 139.19 115.578C140.448 116.272 140.757 117.273 140.089 118.557C139.704 119.302 139.241 119.996 138.933 120.74C138.265 122.384 138.342 123.9 139.344 125.415C140.474 127.136 141.399 128.959 142.118 130.911C142.631 132.349 142.863 133.839 143.119 135.303C143.633 138.179 144.147 141.056 145.123 143.804C145.508 144.883 146.022 145.91 146.51 146.937C147.023 148.042 146.561 149.095 145.38 149.454C144.866 149.608 144.327 149.737 143.813 149.942C144.609 150.045 145.405 149.994 146.176 149.84C148.23 149.403 150.259 148.915 152.288 148.478C154.831 147.913 157.374 147.554 159.968 147.297C164.128 146.86 168.289 146.809 172.475 146.912C177.278 147.04 182.055 147.502 186.832 148.144C190.633 148.658 194.409 149.3 198.184 149.968C198.621 150.045 199.057 150.148 199.494 150.25C199.725 150.302 200.085 150.327 199.982 150.661C199.931 150.867 199.571 150.79 199.366 150.764C198.544 150.636 197.722 150.456 196.926 150.327C189.786 149.043 182.594 148.016 175.326 147.605C170.934 147.374 166.542 147.348 162.176 147.682C157.836 148.016 153.547 148.658 149.309 149.737C147.896 150.096 146.458 150.405 145.02 150.584C144.147 150.713 143.299 150.636 142.503 150.225C142.298 150.122 142.092 150.122 141.861 150.148C140.68 150.276 139.524 150.482 138.342 150.559C136.365 150.713 134.387 151.047 132.384 151.047C131.819 151.047 131.305 151.149 130.792 151.483C129.739 152.177 128.48 152.279 127.273 152.408C124.422 152.742 121.571 152.562 118.72 152.382C115.382 152.151 112.043 151.766 108.704 151.406C105.853 151.098 103.028 150.738 100.177 150.405C96.0422 149.942 91.9072 149.917 87.7722 150.173C84.2793 150.379 80.8121 150.79 77.3705 151.38C77.1651 151.406 76.9339 151.432 76.7284 151.458C76.0093 151.535 75.4443 151.714 74.9563 152.408C74.1858 153.487 72.9017 153.897 71.6432 154.18C68.2016 154.976 64.7087 155.053 61.1901 154.796C55.9507 154.385 50.8398 153.307 45.7289 152.305C41.26 151.406 36.8168 150.533 32.2966 149.891C25.8244 148.966 19.3266 148.684 12.803 149.274C8.79646 149.634 4.86692 150.43 0.988763 151.56C0.757614 151.637 0.552163 151.689 0.321015 151.74C0.141232 151.766 0.0128323 151.766 -0.0642172 151.56C-0.16695 151.278 0.038506 151.278 0.166922 151.226C0.9631 150.995 1.75926 150.764 2.55544 150.533C7.20409 149.3 11.9555 148.632 16.7582 148.427C22.6397 148.196 28.4441 148.709 34.2485 149.608C39.8988 150.482 45.472 151.689 51.0709 152.793C51.148 152.793 51.2251 152.844 51.3021 152.844C51.4305 152.844 51.6103 152.947 51.6617 152.793C51.7387 152.613 51.5076 152.613 51.4048 152.562C51.1737 152.459 51.0709 152.279 51.0709 152.048C51.0709 151.817 51.1737 151.637 51.4305 151.535C51.7901 151.406 52.1497 151.303 52.5349 151.252C53.8961 151.098 54.718 150.173 54.8464 148.812C54.9748 147.451 54.4868 146.244 54.0245 145.011C52.8945 141.955 52.0983 138.847 51.713 135.637C51.4305 133.351 51.713 131.142 52.0469 128.908C52.3808 126.648 52.1753 124.362 51.8928 122.102C51.636 119.919 51.148 117.761 50.6857 115.604C50.3518 113.986 49.9923 112.368 49.6327 110.75C49.5813 110.467 49.5043 110.519 49.3245 110.621C48.8365 110.904 48.2972 110.955 47.7322 110.93C46.9103 110.878 46.5507 110.262 46.2168 109.645C45.8573 108.926 45.6775 108.156 45.5491 107.36C45.0611 104.817 44.6245 102.274 44.1365 99.7316C43.8026 98.0109 43.2889 96.3671 42.8523 94.6721C42.5441 93.5677 42.3644 92.4376 42.2873 91.2819C42.1332 88.7906 41.9791 86.2737 42.2616 83.7567C42.4671 81.8048 42.6982 79.8529 42.9037 77.9266C43.0064 77.0534 43.0835 76.1802 43.0578 75.2813C42.9294 71.9681 44.342 69.3998 46.8846 67.3709C48.6567 65.984 50.4545 64.6741 52.5606 63.8523C53.0742 63.6468 53.5879 63.4927 54.1016 63.3386C54.2814 63.2872 54.3841 63.2359 54.23 63.0304C53.742 62.414 53.742 62.2085 54.2813 61.6178C55.0518 60.8216 55.3344 59.8457 55.4114 58.767C55.4885 57.6113 55.1802 56.5069 54.8464 55.4025C54.5382 54.3752 54.2813 53.3222 54.2043 52.2435C54.0245 49.5981 55.4628 47.5948 57.6715 46.4648C59.8289 45.3604 62.089 45.4117 64.3235 46.2593C65.4535 46.6959 66.4552 47.3123 67.4568 47.9544C67.7907 48.1598 68.0989 48.4167 68.5098 48.5194C68.741 48.5708 68.818 48.7762 68.8951 48.9303C68.9464 49.0331 68.9721 49.1872 69.1519 49.0844C69.0492 48.9817 68.9721 49.0331 68.8951 49.0844C68.5098 49.4954 67.9961 49.7008 67.4825 49.8806C67.1486 50.009 67.2 50.1374 67.3798 50.3172C67.6109 50.5484 67.7393 50.8309 67.7907 51.1648C68.0219 52.4233 68.2273 53.7074 67.6109 54.9145C67.3027 55.5309 67.4054 56.1216 67.6109 56.738C67.7393 57.1233 67.8421 57.4828 67.8678 57.8938C67.9191 58.4588 67.688 58.8697 67.1486 59.0495C66.8147 59.1522 66.712 59.3834 66.635 59.6916C66.3525 60.796 65.7103 61.7462 65.1196 62.6965C64.8371 63.1331 64.3492 63.1074 63.8869 63.0304C62.5513 62.7736 61.2158 62.7222 59.8803 62.8506C59.5721 62.8763 59.2639 62.9277 58.9557 63.1074C59.5721 63.2102 60.1885 63.3386 60.8049 63.4413C62.8595 63.7752 64.8885 64.1604 66.8147 64.9309C68.3557 65.5473 69.7169 66.4719 71.1552 67.2681C73.3126 68.4495 74.982 70.1703 76.6771 71.8911C78.7831 73.9971 81.1203 75.7179 83.7656 77.0791C86.899 78.6971 89.9039 80.5206 92.652 82.7294C94.7323 84.3731 97.1209 85.272 99.6635 85.9141C100.973 86.248 102.309 86.5048 103.593 86.9671C103.953 87.0955 104.235 87.0442 104.595 86.9157C107.831 85.76 111.067 84.6556 114.303 83.4999C117.385 82.3955 120.518 81.4709 123.42 79.9299C124.525 79.3392 125.449 78.4917 126.374 77.6441C128.3 75.8463 129.995 73.843 131.87 71.9938C132.975 70.8894 134.13 69.7594 135.697 69.2971C136.776 68.9632 137.88 68.7064 138.959 68.4239C139.447 68.2954 139.909 68.1157 140.346 67.8845C140.782 67.6534 141.065 66.9085 140.911 66.4206C140.885 66.3178 140.808 66.2922 140.731 66.2922C140.628 66.2922 140.525 66.2922 140.423 66.2922C138.599 66.3435 137.649 65.6758 136.853 64.032C135.98 62.2085 135.928 60.308 136.313 58.3817C136.442 57.714 136.442 57.0205 136.75 56.4041C136.853 56.173 136.724 56.0959 136.519 55.9932C135.517 55.4795 135.363 54.8118 135.954 53.8358C136.622 52.7058 137.623 52.0123 138.728 51.3959C140.012 50.6768 141.322 50.1375 142.811 50.0604C145.097 49.932 146.998 50.8566 148.616 52.3719C150.953 54.5293 152.545 57.1746 153.572 60.1796C154.574 63.0818 155.165 66.0867 156.038 69.0403C156.372 70.119 156.809 71.1463 157.502 72.0452C158.195 72.9184 159.197 73.355 160.199 73.766C160.712 73.9714 161.226 74.1255 161.791 74.1769C162.099 74.2283 162.356 74.1255 162.562 73.843C163.358 72.7386 163.82 71.4802 164.462 70.2987C164.642 69.9648 164.745 69.4512 165.13 69.4512C165.541 69.4512 165.592 69.9905 165.746 70.3244C166.388 71.737 166.157 73.2009 165.156 74.0228C164.539 74.5364 163.769 74.7162 162.973 74.7419C162.69 74.7419 162.485 74.819 162.305 75.0501C160.712 77.002 158.632 77.9266 156.166 78.055C155.679 78.055 155.19 78.055 154.728 78.055C154.497 78.055 154.369 78.055 154.394 78.3632C154.497 81.7791 154.189 85.1693 153.881 88.5595C153.598 91.7699 153.084 94.9546 152.006 97.9852C151.672 98.9098 151.364 99.8601 150.85 100.733C150.619 101.119 150.285 101.35 149.823 101.273C149.515 101.221 149.592 101.375 149.669 101.504C151.338 104.534 152.802 107.719 155.524 110.005C157.245 111.469 159.248 112.111 161.483 112.162C162.407 112.162 163.306 112.111 164.231 112.085C164.565 112.085 164.924 112.034 165.104 112.393C165.31 112.779 165.233 113.164 165.001 113.524C164.411 114.397 163.563 114.987 162.741 115.604C159.557 117.941 156.064 119.585 152.134 120.073C149.823 120.381 147.511 120.15 145.482 118.789C145.123 118.557 144.789 118.249 144.506 117.941C142.606 115.938 140.243 114.808 137.598 114.14C136.39 113.832 135.158 113.678 133.925 113.549C133.54 113.498 133.463 113.601 133.642 113.986C133.899 114.577 134.079 115.193 134.13 115.861C134.156 116.169 134.207 116.451 134.207 116.631C134.259 116.477 134.336 116.169 134.413 115.886L134.284 116.092ZM163.101 74.408C165.31 74.2026 166.106 72.5075 165.027 70.4528C164.359 71.7627 163.769 73.0982 163.024 74.331C163.024 74.3824 163.024 74.408 163.024 74.4594C163.024 74.4594 163.075 74.4337 163.075 74.408H163.101ZM148.77 99.3978C148.77 99.3978 148.718 99.2694 148.693 99.218C148.693 99.1409 148.693 99.0639 148.667 98.9868C148.539 98.4475 148.436 97.8824 148.59 97.3174C149.206 94.8261 149.412 92.2835 149.258 89.7152C149.181 88.0201 149.052 86.3507 149.258 84.6556C149.335 84.1163 149.617 83.6283 149.592 83.0119C149.309 83.3715 149.027 83.6797 148.77 84.0135C147.409 85.76 145.893 87.4037 144.814 89.3556C143.813 91.1791 143.607 92.977 145.02 94.6721C146.278 96.1617 147.434 97.754 148.41 99.4491C148.41 99.4748 148.41 99.5262 148.436 99.5262C148.616 99.6803 148.564 100.168 148.872 100.04C149.078 99.9371 148.744 99.6289 148.744 99.3978H148.77ZM58.8786 109.697C58.8786 109.697 58.6988 109.543 58.6218 109.645C58.5704 109.748 58.6732 109.799 58.7759 109.825C58.8529 109.928 58.9043 110.056 58.9814 110.159C59.8803 111.546 60.3683 113.036 60.2398 114.731C60.1114 116.297 59.7005 117.787 59.3923 119.328C59.0327 121.1 58.7245 122.846 58.8529 124.67C59.0327 127.675 59.1612 130.68 59.3923 133.659C59.7005 137.768 59.9573 141.878 60.0858 145.987C60.1628 148.016 60.1885 150.045 59.8289 152.048C59.7262 152.613 59.418 152.947 58.93 153.178C57.7229 153.743 56.4644 153.564 55.2059 153.564C55.2059 153.564 55.206 153.512 55.1546 153.461C55.3087 153.409 55.4628 153.384 55.5912 153.461C56.6699 153.846 57.8256 153.923 58.9557 154.052C61.9863 154.437 65.0169 154.514 68.0475 154.231C69.794 154.077 71.5404 153.846 73.1585 153.076C73.7492 152.793 74.3142 152.511 74.7508 151.868C73.6208 152.074 72.5934 152.254 71.5918 152.459C70.1535 152.716 68.741 153.076 67.2513 152.999C65.4278 152.896 64.6574 151.971 64.8628 150.173C64.9399 149.583 64.9912 148.992 65.0683 148.401C65.2994 146.86 65.3765 145.345 65.0169 143.804C64.7601 142.7 64.5289 141.595 64.2978 140.517C63.8869 138.642 63.7584 136.741 63.5273 134.841C63.3218 133.043 63.1934 131.245 63.2962 129.421C63.3989 127.752 63.7584 126.134 63.9639 124.49C64.1437 123.129 64.2464 121.768 64.1437 120.407C63.9382 117.838 63.0907 115.475 61.6781 113.292C60.8562 112.008 60.0087 110.724 58.8786 109.697ZM56.2846 96.213V96.3928C56.2846 96.3928 56.5158 96.4185 56.6185 96.4442C59.3923 96.7781 62.1661 96.7267 64.9142 96.3928C67.0716 96.136 68.9464 97.2404 69.794 99.218C70.1279 100.04 70.3077 100.887 70.4874 101.761C71.0525 104.38 71.4891 107.026 72.1825 109.645C72.5934 111.238 73.1585 112.83 73.3896 114.474C73.8005 117.633 73.6465 120.818 73.0301 123.951C72.4907 126.827 71.8486 129.704 71.3863 132.606C70.847 135.971 70.3847 139.361 69.8967 142.751C69.6399 144.523 70.1022 146.141 70.9754 147.656C71.6432 148.838 72.7219 149.352 74.0317 149.531C74.5967 149.608 75.1618 149.711 75.4443 150.379C75.547 150.636 75.4443 150.995 75.7525 151.124C76.035 151.252 76.3175 151.021 76.6257 151.021C76.7285 151.021 76.8312 150.995 76.9082 150.97C80.735 150.25 84.6132 149.865 88.4913 149.634C93.0886 149.352 97.6602 149.608 102.232 150.148C108.576 150.893 114.919 151.766 121.314 152.074C123.985 152.202 126.657 152.202 129.302 151.637C129.507 151.586 129.764 151.586 129.97 151.226C128.403 151.226 126.913 151.252 125.449 151.226C124.371 151.201 123.292 151.226 122.239 150.867C122.008 150.79 121.674 150.738 121.648 150.43C121.623 150.096 121.879 149.891 122.136 149.737C122.29 149.634 122.47 149.608 122.65 149.583C123.112 149.506 123.6 149.454 124.088 149.377C125.681 149.095 127.144 147.708 127.376 146.347C127.787 143.881 127.581 141.415 127.427 138.95C127.273 136.638 127.042 134.327 126.965 131.99C126.862 129.447 127.35 126.93 127.504 124.387C127.632 122.179 127.555 120.021 126.579 117.967C126.169 117.119 126.297 116.297 126.836 115.527C127.299 114.859 127.941 114.397 128.685 114.089C129.687 113.652 130.766 113.498 131.819 113.395C131.922 113.395 132.05 113.421 132.076 113.292C132.076 113.19 131.999 113.138 131.896 113.087C131.511 112.83 131.1 112.625 130.663 112.47C129.456 112.085 128.249 112.265 127.016 112.419C126.297 112.522 125.809 112.188 125.552 111.495C125.321 110.878 125.27 110.236 125.244 109.594C125.064 104.791 125.809 100.168 127.632 95.7251C128.686 93.1824 130.098 90.871 132.178 89.0218C132.795 88.4824 133.36 87.8917 133.899 87.2753C134.464 86.6332 134.875 85.8884 135.132 85.0666C135.492 83.8338 135.106 82.7037 134.49 81.6507C134.182 81.1113 133.796 80.5977 133.617 79.9813C133.488 79.5703 133.668 79.3392 133.976 79.1594C134.207 79.0053 134.439 79.0053 134.695 79.031C136.005 79.1851 137.187 79.7244 138.368 80.1867C138.856 80.3665 139.293 80.7004 139.832 80.7261C139.883 80.572 139.832 80.4693 139.729 80.3922C139.087 79.596 138.342 78.9026 137.443 78.4146C135.671 77.4386 135.286 77.5157 133.848 78.7485C132.153 80.1868 130.56 81.7534 128.84 83.166C126.554 85.0666 123.985 86.3764 121.032 86.9157C118.926 87.301 116.82 87.6605 114.714 88.0715C112.248 88.5338 109.885 89.1245 108.088 91.0764C107.856 91.3332 107.728 91.4873 107.856 91.8469C108.036 92.3092 108.088 92.8229 108.062 93.3108C108.011 93.9786 107.548 94.3382 106.906 94.1841C106.547 94.107 106.187 93.9529 105.827 93.7988C105.031 93.4906 104.338 93.0027 103.516 92.7715C102.951 92.6174 102.797 92.7715 102.771 93.3365C102.771 93.5934 102.771 93.8245 102.771 94.0814C102.771 94.595 102.54 94.8005 102.052 94.6977C101.641 94.595 101.359 94.3382 101.359 93.9016C101.333 93.3365 101.025 92.8999 100.639 92.5403C100.28 92.2065 99.8947 91.924 99.4581 91.7442C98.4821 91.3332 97.5832 90.8196 96.9154 89.972C96.3504 89.2786 95.6056 88.842 94.7837 88.5595C93.3198 88.0201 91.8045 87.6862 90.2891 87.2496C88.1061 86.6075 85.8973 86.0682 83.817 85.1693C82.4558 84.5786 81.1203 83.8594 79.7847 83.243C77.7044 82.2671 75.624 81.3425 73.5437 80.3922C72.2339 79.8015 71.0781 78.9283 69.7683 78.3632C68.33 77.7468 67.8934 78.2605 67.5082 79.4163C67.2514 80.2124 67.5082 80.9572 67.6623 81.7277C67.8934 83.0889 68.2273 84.4245 68.4071 85.7857C68.6382 87.3524 68.6639 88.9704 68.6383 90.5628C68.6383 90.9994 68.6126 91.4617 68.5612 91.8983C68.3557 93.619 67.3027 94.595 65.7104 95.0573C63.4503 95.7251 61.1131 95.9562 58.8016 96.1617C57.9284 96.2387 57.0551 96.2901 56.1819 96.3415L56.2846 96.213ZM103.336 87.6092C103.182 87.5321 103.131 87.5065 103.054 87.4808C101.924 87.1983 100.819 86.9157 99.6892 86.6589C96.864 85.9912 94.27 84.8868 91.9842 83.0633C89.2875 80.9059 86.3083 79.1594 83.2263 77.5671C80.8634 76.36 78.7317 74.8447 76.8312 72.9698C75.059 71.2233 73.3896 69.3741 71.1809 68.1157C69.4087 67.0883 67.688 65.9326 65.7104 65.3162C62.8595 64.4173 59.9059 63.955 56.9267 63.7752C55.1802 63.6725 53.6649 64.1348 52.124 64.8025C50.3261 65.573 48.7595 66.7288 47.2442 67.9359C44.7529 69.8878 43.4944 72.4047 43.5715 75.5895C43.6228 77.5414 43.366 79.4676 43.1348 81.3939C42.9294 83.2174 42.6469 85.0152 42.6726 86.8387C42.6983 89.407 42.8267 91.9496 43.3917 94.4666C43.6742 95.6994 44.0851 96.8808 44.3676 98.1136C45.0611 100.913 45.395 103.764 45.96 106.563C46.1655 107.591 46.2939 108.669 46.8076 109.62C47.3212 110.544 48.1944 110.75 49.119 110.21C49.3245 110.082 49.4272 109.954 49.3759 109.645C49.119 108.336 48.9906 107.026 48.8622 105.69C48.8108 105.151 48.6824 104.611 48.4513 104.123C47.7065 102.454 47.2698 100.708 47.2955 98.8841C47.2955 97.0349 47.3982 95.16 47.2185 93.3108C47.0644 91.4103 46.9873 89.5354 47.0387 87.6349C47.0387 87.301 47.1157 87.0185 47.2955 86.736C47.8349 85.76 48.3999 84.8097 48.6054 83.7053C48.6311 83.5512 48.6824 83.3971 48.6054 83.2174C47.6294 81.0086 46.9103 78.6971 46.448 76.3086C46.3453 75.8206 46.1655 75.3583 46.3196 74.8446C46.3709 74.6649 46.448 74.4851 46.6534 74.4337C46.8589 74.3824 46.9103 74.5878 47.013 74.7162C48.5283 76.925 49.3245 79.3906 49.2475 82.0616C49.2218 83.2174 49.6327 84.1163 50.1721 85.0152C50.4289 85.4261 50.7114 85.8627 50.9939 86.2737C51.6103 87.2239 51.9442 88.2513 51.9699 89.407C52.0212 92.0781 51.3791 94.6207 50.6343 97.112C50.0693 99.0125 49.4272 100.913 49.3759 102.916C49.3759 103.918 49.3758 104.843 49.8638 105.793C50.4032 106.872 50.6857 108.104 50.2491 109.311C50.0693 109.799 50.0693 110.236 50.1721 110.724C50.9682 114.397 51.8415 118.069 52.3808 121.793C52.7147 124.233 52.8174 126.699 52.5349 129.139C52.3808 130.423 52.0469 131.681 52.0726 132.991C52.1496 136.459 52.7917 139.823 53.8961 143.085C54.4098 144.6 55.1032 146.09 55.3601 147.682C55.6939 149.737 54.795 151.714 52.2781 151.894C52.0726 151.894 51.8671 151.997 51.6617 152.023C51.713 152.1 51.713 152.151 51.7387 152.151C53.5622 152.819 55.4628 153.127 57.4147 153.024C58.8529 152.947 59.3152 152.433 59.3923 150.97C59.3923 150.944 59.3923 150.893 59.3923 150.867C59.5978 148.093 59.4437 145.319 59.3153 142.545C59.1612 139.104 58.8786 135.637 58.6732 132.195C58.5961 130.86 58.4934 129.55 58.442 128.214C58.3393 126.185 58.0824 124.182 58.3393 122.153C58.5961 120.175 58.9814 118.224 59.4693 116.297C60.0857 113.78 59.4437 111.572 57.9027 109.594C57.0294 108.49 55.9764 107.591 54.8207 106.795C54.5896 106.64 54.4354 106.486 54.5639 106.204C54.718 105.844 55.0005 106.075 55.1546 106.152C56.0535 106.486 56.7983 107.103 57.5431 107.693C60.2398 109.902 62.2431 112.625 63.6043 115.835C64.8628 118.789 64.9142 121.896 64.4519 125.03C64.1437 127.136 63.6814 129.216 63.8098 131.348C63.8869 132.529 63.9896 133.71 64.118 134.866C64.4005 137.049 64.5803 139.258 65.0683 141.415C65.5563 143.521 66.1213 145.602 65.6333 147.836C65.4535 148.709 65.3765 149.66 65.3251 150.584C65.2737 151.329 65.6847 152.023 66.3781 152.254C66.8147 152.408 67.2514 152.434 67.7137 152.408C70.1022 152.305 72.4137 151.714 74.7508 151.303C75.0333 151.252 75.0847 151.072 75.0333 150.841C74.9563 150.482 74.7508 150.25 74.3913 150.148C74.1601 150.096 73.929 150.045 73.7235 150.019C71.9514 149.788 70.8213 148.761 70.0765 147.168C69.1776 145.242 69.2289 143.265 69.5371 141.261C69.8967 138.924 70.1792 136.561 70.5645 134.224C71.0011 131.63 71.3864 129.036 71.9257 126.493C72.5421 123.643 73.0558 120.766 73.0044 117.813C72.9787 116.195 72.9273 114.551 72.465 112.984C71.5661 109.902 70.847 106.795 70.2563 103.661C69.9994 102.3 69.794 100.939 69.306 99.6546C68.6639 97.8311 66.9689 96.7781 65.0683 96.9835C64.4519 97.0349 63.8612 97.1376 63.2448 97.189C60.7792 97.3945 58.3393 97.3174 55.8737 96.9579C54.7693 96.8038 53.6393 96.5983 52.5863 96.213C52.4835 96.1617 52.2781 96.1874 52.3038 96.0076C52.3038 95.8278 52.4835 95.7251 52.6633 95.6994C52.7661 95.6994 52.8688 95.6994 52.9715 95.6994C55.6939 95.7251 58.3907 95.6994 61.0874 95.3141C62.8082 95.083 64.5033 94.8775 66.147 94.2611C67.2 93.8502 67.7907 93.1311 68.0475 92.0781C68.1246 91.7699 68.1503 91.4103 68.1759 91.1021C68.33 88.354 67.9962 85.6573 67.4568 82.9862C67.2257 81.9075 66.8918 80.8288 66.9945 79.6988C67.0716 78.8769 67.2513 78.0807 68.0989 77.7212C68.8437 77.413 69.6142 77.4643 70.359 77.8753C71.5404 78.5687 72.6962 79.2622 73.929 79.8272C76.2918 80.9059 78.706 81.9332 81.0175 83.089C83.6629 84.4245 86.3853 85.5032 89.2618 86.2737C91.0597 86.7616 92.8318 87.2496 94.6296 87.789C95.5799 88.0715 96.4788 88.4567 97.1465 89.2272C97.8914 90.1005 98.816 90.7168 99.8433 91.2048C100.922 91.6928 101.795 92.4119 101.975 93.6961C101.975 93.8245 102.026 94.0043 102.18 94.0043C102.412 94.0043 102.309 93.7731 102.335 93.6447C102.386 93.2595 102.155 92.8229 102.489 92.4633C102.745 92.1808 102.617 92.0267 102.283 91.8983C101.718 91.6928 101.282 91.3076 100.948 90.8196C100.537 90.2289 100.588 89.6638 101.076 89.1502C101.41 88.7906 101.821 88.4824 102.258 88.2513C102.591 88.0715 102.925 87.866 103.336 87.6349V87.6092ZM162.279 112.856C161.56 112.907 160.815 112.907 160.096 112.856C159.377 112.779 158.658 112.625 157.964 112.368C156.166 111.726 154.754 110.596 153.521 109.183C151.852 107.282 150.67 105.074 149.54 102.839C148.153 100.091 146.689 97.3688 144.609 95.0316C143.684 94.0043 143.351 92.7458 143.556 91.3333C143.736 90.1005 144.352 89.0474 144.994 88.0458C146.124 86.325 147.511 84.784 148.77 83.166C149.283 82.4982 149.9 81.8562 150.259 81.1113C150.696 80.1354 151.03 79.0567 151.287 78.0037C151.364 77.6955 151.287 77.5928 150.978 77.4643C150.08 77.1561 149.258 76.6681 148.487 76.1288C146.15 74.4594 144.763 72.1736 144.095 69.4255C144.018 69.143 143.941 69.0146 143.633 68.9889C142.837 68.8862 142.015 68.8348 141.322 68.3468C141.142 68.2184 140.988 68.3468 140.859 68.4239C139.652 69.143 138.291 69.3998 136.955 69.708C135.62 70.0162 134.439 70.5556 133.411 71.4802C131.459 73.2266 129.764 75.2042 127.941 77.0791C125.989 79.1081 123.857 80.8032 121.186 81.8048C117.231 83.3201 113.224 84.6043 109.269 86.0682C107.908 86.5562 106.547 87.0185 105.185 87.4808C105.057 87.5321 104.903 87.5321 104.877 87.6862C104.877 87.8146 104.98 87.8403 105.057 87.8917C106.059 88.4567 106.701 89.3557 107.24 90.3316C107.523 90.8453 107.548 90.8709 107.933 90.4343C109.012 89.2272 110.373 88.5081 111.889 88.0715C114.354 87.3524 116.923 87.0441 119.44 86.5818C121.34 86.2223 123.266 85.8627 125.013 84.9638C126.631 84.142 128.069 83.0376 129.456 81.8562C130.997 80.5206 132.461 79.1081 134.053 77.7982C134.849 77.1561 135.723 76.9763 136.673 77.3359C138.24 77.9523 139.498 78.9796 140.423 80.3922C140.577 80.6234 140.705 80.8802 140.525 81.137C140.346 81.4195 140.037 81.2654 139.781 81.2141C138.779 80.9829 137.906 80.4949 136.955 80.1611C136.262 79.9042 135.594 79.6731 134.875 79.519C134.67 79.4676 134.361 79.3906 134.207 79.596C134.053 79.8015 134.207 80.0327 134.336 80.2381C134.516 80.572 134.695 80.8802 134.875 81.1884C136.159 83.3971 136.031 85.4004 134.413 87.4037C133.565 88.4567 132.512 89.3043 131.588 90.2802C129.687 92.2578 128.429 94.6721 127.555 97.2404C126.246 101.067 125.629 105.022 125.732 109.08C125.732 109.748 125.86 110.416 126.04 111.032C126.22 111.649 126.477 111.803 127.119 111.726C127.838 111.623 128.531 111.546 129.251 111.572C130.56 111.623 131.742 111.983 132.666 112.933C132.872 113.138 133.103 113.215 133.385 113.215C134.901 113.215 136.39 113.498 137.854 113.909C140.474 114.602 142.863 115.732 144.763 117.761C145.508 118.532 146.407 119.071 147.46 119.405C149.386 119.996 151.338 119.944 153.264 119.533C156.834 118.789 160.019 117.196 162.87 114.936C163.409 114.499 163.923 114.063 164.334 113.524C164.462 113.369 164.591 113.164 164.514 112.984C164.436 112.779 164.18 112.856 164.026 112.856C163.435 112.856 162.87 112.856 162.279 112.856ZM161.688 74.9474C161.252 74.9474 160.841 74.819 160.481 74.6906C158.786 74.0998 157.219 73.355 156.372 71.6599C155.935 70.7867 155.601 69.9135 155.345 68.9889C154.523 66.1124 153.932 63.1845 152.93 60.385C151.775 57.1233 150.003 54.2981 147.177 52.2178C145.996 51.3446 144.635 50.8822 143.145 50.9079C141.501 50.9336 140.037 51.55 138.651 52.3719C137.777 52.8855 137.007 53.5019 136.442 54.3495C136.211 54.6834 136.005 55.0429 136.288 55.4539C136.519 55.7877 137.135 56.0446 137.52 55.8648C138.471 55.4539 139.19 55.8391 139.858 56.4298C140.14 56.6866 140.448 56.8664 140.782 56.9948C141.604 57.303 142.426 57.5856 143.196 58.0222C144.737 58.8697 145.585 60.0768 145.328 61.926C145.2 62.8506 144.892 63.7238 144.455 64.5457C144.249 64.9053 144.172 65.2905 144.224 65.7014C144.301 66.4463 144.378 67.1911 144.404 67.9359C144.429 68.3982 144.609 68.578 145.097 68.5523C146.15 68.5266 147.229 68.5009 148.282 68.5523C149.515 68.6036 150.491 69.0916 151.184 70.1703C152.34 71.9681 152.597 73.9201 152.34 76.0004C152.34 76.1545 152.237 76.3086 152.365 76.5141C152.571 76.2059 152.725 75.949 152.93 75.7179C153.11 75.5124 153.316 75.3583 153.624 75.4611C153.906 75.5381 153.906 75.7949 153.958 76.0261C154.06 76.4627 154.138 76.8993 154.189 77.3359C154.24 77.6184 154.317 77.7725 154.651 77.7725C155.55 77.8239 156.449 77.8239 157.322 77.6184C159.043 77.2589 160.558 76.4627 161.663 74.9988L161.688 74.9474ZM126.759 150.636C128.377 150.636 129.482 150.636 130.586 150.636C131.177 150.636 131.331 150.456 131.357 149.84C131.357 149.66 131.331 149.48 131.305 149.3C131.202 148.761 131.048 148.196 131.048 147.631C131.048 146.244 131.202 144.831 131.408 143.47C131.793 140.773 132.281 138.077 132.949 135.406C133.386 133.71 133.565 131.964 133.437 130.218C133.334 128.754 133.283 127.29 133.308 125.826C133.308 123.925 133.565 122.05 133.617 120.15C133.668 118.455 133.719 116.76 133.257 115.116C132.872 113.678 132.846 113.703 131.408 113.857C130.381 113.986 129.379 114.191 128.48 114.705C127.35 115.347 126.4 116.4 127.324 118.069C127.787 118.891 127.915 119.842 128.018 120.74C128.249 122.821 128.12 124.901 127.838 127.007C127.401 130.192 127.581 133.377 127.864 136.561C128.095 139.104 128.223 141.672 128.197 144.215C128.197 145.217 128.146 146.218 127.684 147.143C126.785 148.992 125.218 149.84 123.215 149.942C122.958 149.942 122.522 149.917 122.522 150.148C122.522 150.456 122.984 150.43 123.266 150.456C124.602 150.61 125.963 150.584 126.811 150.61L126.759 150.636ZM136.776 115.578C136.622 115.578 136.468 115.578 136.339 115.578C135.106 115.63 134.644 116.22 134.849 117.402C134.849 117.504 134.901 117.633 134.927 117.736C135.389 119.636 135.492 121.537 134.952 123.437C134.721 124.259 134.464 125.081 134.439 125.954C134.413 127.238 134.772 128.445 135.183 129.653C136.339 132.914 138.008 135.919 139.704 138.95C140.988 141.261 141.887 143.701 142.066 146.372C142.118 147.246 142.092 148.093 142.221 148.966C142.272 149.326 142.426 149.506 142.811 149.454C143.684 149.352 144.558 149.197 145.354 148.812C146.099 148.453 146.304 147.939 145.996 147.194C145.662 146.398 145.251 145.602 144.917 144.806C143.633 141.724 143.094 138.462 142.529 135.2C142.298 133.89 142.118 132.58 141.681 131.322C141.039 129.396 140.012 127.649 139.01 125.903C138.548 125.132 138.06 124.362 137.983 123.437C137.906 122.204 138.111 121.023 138.702 119.919C139.087 119.174 139.627 118.506 139.858 117.658C139.986 117.171 139.858 116.811 139.498 116.503C138.728 115.835 137.803 115.527 136.801 115.552L136.776 115.578ZM134.207 117.248C134.207 119.148 134.053 121.049 134.002 122.949C133.951 125.03 133.771 127.084 133.951 129.165C134.105 130.937 134.105 132.683 133.694 134.43C132.975 137.614 132.255 140.799 131.87 144.061C131.716 145.448 131.459 146.86 131.639 148.273C131.716 148.786 131.973 149.249 131.922 149.762C131.845 150.61 131.819 150.61 132.692 150.559C132.743 150.559 132.795 150.559 132.846 150.559C135.62 150.302 138.368 150.071 141.116 149.737C141.553 149.685 141.81 149.66 141.63 149.12C141.553 148.838 141.578 148.53 141.578 148.221C141.604 144.729 140.551 141.57 138.83 138.59C137.238 135.791 135.748 132.966 134.644 129.909C133.976 128.009 133.642 126.134 134.182 124.131C134.464 123.103 134.772 122.05 134.772 120.972C134.772 119.713 134.49 118.48 134.182 117.299L134.207 117.248ZM67.4311 52.7314C67.4311 52.0637 67.4055 51.2932 66.8661 50.6511C66.7634 50.5227 66.6863 50.42 66.4808 50.42C65.0683 50.5227 63.9126 51.6014 63.7071 52.9883C63.6044 53.6304 63.63 54.2724 63.5787 54.9145C63.553 55.4025 62.9109 56.0189 62.577 55.8648C62.1918 55.685 61.7038 55.5309 61.4983 55.0429C61.3956 54.7861 61.2929 54.5549 61.1644 54.3238C60.9333 53.8872 60.7022 53.8872 60.3683 54.2468C60.0858 54.5549 59.9059 54.9145 59.7775 55.3254C59.5464 56.1473 59.418 56.9692 59.2896 57.8167C59.1612 58.7413 58.8787 58.9468 58.0054 58.7156C57.7229 58.6386 57.4147 58.5102 57.1835 58.7156C56.5928 59.1779 55.9251 59.6145 55.6682 60.385C55.4628 61.0014 55.1546 61.5151 54.7437 62.0031C54.5896 62.1572 54.2814 62.337 54.4611 62.6195C54.6152 62.902 54.8978 63.0818 55.2316 63.1074C55.3857 63.1074 55.5655 63.1075 55.7196 63.0818C57.1322 62.7479 58.5705 62.6195 60.0087 62.5167C61.4213 62.414 62.8338 62.5167 64.2464 62.6451C64.5803 62.6708 64.7601 62.5681 64.9142 62.2599C65.171 61.7462 65.4278 61.2326 65.736 60.7189C65.9415 60.385 66.1984 60.0255 66.147 59.6145C66.0956 59.2036 66.3011 59.0495 66.635 58.8697C67.5339 58.4074 67.5338 58.3304 67.2 57.3544C67.0972 57.0719 67.0202 56.7894 66.9432 56.5069C66.7891 55.9675 66.8147 55.4282 67.0716 54.9145C67.4055 54.2468 67.4825 53.5533 67.4054 52.7314H67.4311ZM54.9491 53.1424C54.9491 53.4763 54.9491 53.8101 55.0518 54.144C55.4371 55.5823 56.0792 56.9435 56.0535 58.4845C56.0535 58.7927 56.2333 58.844 56.413 58.6129C56.9524 57.9708 57.6202 58.0222 58.3136 58.1763C58.6218 58.2533 58.7502 58.1249 58.7759 57.8424C58.8529 57.3287 58.9043 56.7894 58.9814 56.2757C59.1098 55.3768 59.3923 54.5806 59.9573 53.8615C60.4967 53.2194 61.2158 53.3222 61.5754 54.0413C61.7295 54.3495 61.9093 54.6577 62.089 54.9402C62.2431 55.1713 62.4743 55.2484 62.7568 55.197C63.065 55.1457 63.0136 54.8631 63.0136 54.6834C63.0393 54.2211 63.0136 53.7588 63.065 53.2965C63.2448 51.8582 63.8355 50.7025 65.3251 50.2145C65.5306 50.1374 65.736 50.0604 65.9158 49.9833C66.1213 49.9063 66.1983 49.8036 65.9415 49.6495C65.582 49.4183 65.2224 49.1872 64.8628 48.956C62.9623 47.7746 60.9076 47.6205 58.8016 48.2369C57.3377 48.6735 56.5415 49.8549 55.6682 50.9593C55.1546 51.6014 54.9748 52.3462 54.9234 53.1167L54.9491 53.1424ZM150.157 100.964C150.157 100.964 150.259 100.785 150.285 100.708C151.441 98.2163 152.263 95.6223 152.699 92.8999C152.982 91.1021 153.162 89.3043 153.341 87.5064C153.624 84.6299 153.701 81.7277 153.727 78.8512C153.727 78.3119 153.598 78.0807 153.033 78.0294C152.648 77.978 152.494 78.0294 152.365 78.4146C151.954 79.5703 151.158 80.572 150.722 81.7021C149.848 83.9622 149.515 86.2993 149.771 88.7392C150.054 91.2819 149.925 93.8245 149.335 96.3158C148.924 98.0109 149.206 99.5005 150.157 100.99V100.964ZM137.572 56.6353C137.187 56.6867 137.11 57.0462 137.058 57.3544C136.75 58.767 136.519 60.2052 136.673 61.6435C136.801 63.0304 137.289 64.2889 138.265 65.3162C138.651 65.7271 139.087 65.9583 139.678 65.9326C140.037 65.9326 140.371 65.9326 140.731 65.9326C141.245 65.9326 141.553 66.1381 141.476 66.7031C141.476 66.8315 141.373 67.037 141.604 67.0883C141.758 67.114 141.861 67.0113 141.938 66.9086C142.452 66.3178 142.965 65.7015 143.505 65.1107C143.633 64.9566 143.659 64.8025 143.633 64.5971C143.222 62.3626 142.349 60.3593 141.116 58.4331C140.269 57.0976 138.959 56.9178 137.598 56.6096L137.572 56.6353ZM49.0934 84.1163C48.8108 84.784 48.6567 85.4004 48.3229 85.9141C47.6037 86.9671 47.5267 88.1228 47.6037 89.3299C47.7322 91.5901 47.9376 93.8759 47.8863 96.1617C47.8349 98.6016 47.7578 101.016 48.7338 103.353C48.8365 103.199 48.8365 102.993 48.8622 102.788C48.9906 101.709 49.0163 100.605 49.3245 99.5519C50.1207 96.9835 50.9169 94.3895 51.3021 91.7185C51.5076 90.3316 51.6617 88.919 51.0966 87.5835C50.583 86.3764 49.7097 85.3747 49.119 84.1163H49.0934ZM144.66 69.0146C144.763 69.5539 144.917 70.0676 145.071 70.5812C145.277 71.1976 145.534 71.7884 145.868 72.3534C147.126 74.5108 148.949 76.0004 151.235 76.9507C151.415 77.0277 151.569 77.1048 151.646 76.7709C152.134 74.819 152.006 72.9441 151.158 71.0949C150.568 69.8364 149.617 69.0916 148.256 69.0146C147.075 68.9375 145.868 69.0146 144.686 69.0146H144.66ZM104.954 92.0524C105.519 92.1037 106.187 91.8469 106.803 91.4617C106.983 91.3332 107.112 91.2305 106.983 90.9737C106.367 89.7666 105.545 88.7392 104.338 88.0715C104.184 87.9687 104.004 87.8917 103.824 88.0201C103.182 88.4054 102.463 88.6879 101.847 89.1502C101.025 89.7666 100.999 90.2545 101.795 90.8966C102.668 91.5901 103.644 92.0524 104.98 92.0524H104.954ZM54.8464 51.3189C55.1289 50.8823 55.3087 50.5227 55.5655 50.2402C56.3874 49.3413 57.0808 48.2626 58.3136 47.8516C61.1388 46.8757 63.7328 47.2866 66.0956 49.1358C66.8404 49.7265 67.4311 49.7265 68.1503 49.1358C67.3798 48.8019 66.7634 48.2626 66.0186 47.8516C63.9125 46.6959 61.7809 45.8484 59.2896 46.5675C57.7229 47.0298 56.4644 47.8516 55.5398 49.1872C55.1289 49.8036 54.8464 50.4713 54.8464 51.3446V51.3189ZM141.245 57.714C142.683 59.5632 143.556 61.6692 144.095 63.955C144.429 63.1845 144.737 62.4397 144.814 61.5921C144.892 60.873 144.763 60.1539 144.301 59.5632C143.53 58.5872 142.4 58.1249 141.245 57.714ZM46.9873 75.7692C47.3212 77.8496 47.8349 79.8786 48.6824 81.8048C48.6824 79.6217 48.066 77.6441 46.9873 75.7692ZM143.71 65.8042C143.068 66.4976 142.58 67.1397 141.964 67.6534C141.758 67.8331 141.835 68.0129 142.066 68.09C142.554 68.2954 143.068 68.3982 143.607 68.4239C143.787 68.4239 143.89 68.3725 143.864 68.167C143.787 67.4222 143.659 66.7031 143.684 65.8042H143.71ZM107.368 91.8212C106.983 92.001 106.649 92.1808 106.264 92.3349C105.905 92.489 105.519 92.5917 105.083 92.7201C105.75 93.0027 106.341 93.3365 106.983 93.4906C107.343 93.5934 107.523 93.4393 107.548 93.0797C107.548 92.6431 107.471 92.2322 107.343 91.8212H107.368ZM153.65 77.2589C153.598 76.925 153.65 76.5654 153.521 76.2315C153.521 76.1545 153.521 76.0518 153.418 76.0261C153.29 76.0004 153.239 76.1031 153.213 76.1802C153.084 76.4884 152.956 76.8223 152.828 77.1561C152.776 77.2845 152.776 77.413 152.905 77.4643C153.136 77.5414 153.367 77.6698 153.624 77.5927C153.752 77.5414 153.701 77.3873 153.701 77.2846L153.65 77.2589ZM49.8125 108.49C49.9409 107.591 49.8381 107.128 49.5043 106.82C49.607 107.385 49.7098 107.925 49.8125 108.49ZM149.489 101.17C149.489 101.17 149.437 101.247 149.437 101.298C149.437 101.375 149.437 101.452 149.566 101.478C149.669 101.478 149.694 101.427 149.669 101.35C149.669 101.273 149.643 101.196 149.515 101.196L149.489 101.17ZM149.206 100.759C149.206 100.759 149.206 100.759 149.181 100.733C149.181 100.733 149.181 100.785 149.155 100.785C149.155 100.785 149.155 100.785 149.181 100.81C149.181 100.81 149.181 100.759 149.206 100.759Z"></path>
</g>
<defs>
<clipPath id="clip0_2561_652">
<rect fill="white" height="200" width="200"></rect>
</clipPath>
</defs>
</svg>
