<svg xmlns="http://www.w3.org/2000/svg" fill="none" viewBox="0 0 200 200" height="200" width="200">
<g clip-path="url(#clip0_2561_397)">
<path stroke-miterlimit="10" stroke-width="1.79473" stroke="#AD8B3A" d="M200 -0.219971H-0.219971V200H200V-0.219971Z"></path>
<mask height="182" width="179" y="18" x="10" maskUnits="userSpaceOnUse" style="mask-type:luminance" id="mask0_2561_397">
<path fill="white" d="M188.944 18.8035H10.8713V199.999H188.944V18.8035Z"></path>
</mask>
<g mask="url(#mask0_2561_397)">
<path fill="#AD8B3A" d="M17.6194 152.583C18.3373 150.501 19.0911 148.419 18.9475 146.122C18.8398 144.65 18.7321 143.178 18.3732 141.707C17.2604 137.112 18.1219 132.625 19.1988 128.175C21.2807 119.632 24.547 111.483 27.1315 103.084C29.1416 96.5872 32.9823 91.2031 39.3356 88.0084C42.0636 86.6445 44.9352 86.0342 47.9503 86.0342C48.9913 86.0342 49.3502 85.8907 48.9195 84.7062C48.1298 82.4089 47.6631 80.0398 47.4119 77.599C47.1247 74.9428 46.371 72.3943 46.4786 69.6663C46.5863 66.723 47.1248 63.9591 49.0272 61.59C49.2425 61.3388 49.6374 61.0875 49.3143 60.7286C49.0631 60.4414 48.6682 60.585 48.3092 60.6568C46.4427 61.0875 44.9352 62.0208 44.0378 63.6719C44.2532 61.8054 45.6172 60.8721 47.2324 60.1542C47.5555 60.0107 48.1298 60.0466 48.0939 59.5081C48.0939 59.0774 47.6273 58.8979 47.2683 58.7185C44.7198 57.2468 43.7147 55.0213 43.8942 52.1139C44.1814 48.2373 46.6222 46.3707 49.9963 45.3298C50.9295 45.0426 51.6834 44.6478 52.4372 44.0376C54.4472 42.4582 56.8163 42.6377 59.1135 43.1043C60.4416 43.3915 61.4826 44.4324 62.703 45.0426C64.1029 45.7605 63.9234 47.5194 64.2824 48.8833C64.1747 49.6012 64.1388 50.3191 64.2824 51.0011L63.9952 51.8985C63.6363 51.9344 63.708 52.1498 63.8157 52.3651C63.8157 52.4369 63.7798 52.4728 63.7439 52.5446C63.7439 52.5446 63.7439 52.6164 63.7439 52.6523C63.6003 52.8318 63.4209 53.0471 63.6722 53.2266C63.8158 53.3343 64.0311 53.1907 64.1029 52.9753C64.3542 52.9035 64.6054 52.8318 64.8566 52.76C65.2874 53.9445 66.0053 53.1189 66.6514 53.0471C70.0973 51.9703 73.579 52.1856 77.0249 53.083C81.7271 54.3034 85.3525 57.1032 88.3317 60.8363C88.5471 61.0875 88.583 61.59 89.0137 61.5183C89.5163 61.4465 89.4085 60.908 89.4803 60.5491C89.9111 58.6108 88.9779 56.9596 88.2959 55.3085C86.7883 51.5754 85.6755 47.8424 86.7165 43.7863C86.8242 43.3915 86.6447 43.1761 86.3575 42.889C84.3833 41.0583 84.3474 38.8688 85.3525 36.6074C87.219 32.4077 90.5931 29.5362 94.4338 27.2748C100.464 23.7213 106.997 22.5367 113.925 23.2905C116.222 23.5418 118.591 23.9007 120.027 26.1262C120.134 26.2698 120.314 26.4133 120.493 26.4851C124.944 28.1363 126.057 32.0847 126.99 36.069C128.534 42.8531 127.708 49.6012 126.38 56.2776C125.375 61.3747 125.303 66.364 127.457 71.2457C127.923 72.2866 128.462 73.0763 129.682 73.2917C130.364 73.3994 131.046 73.6147 131.692 73.8301C133.164 74.2967 134.313 73.9737 135.677 73.0763C141.24 69.3791 147.342 68.5895 153.732 70.5637C158.003 71.8918 160.839 74.9069 162.167 79.1066C163.818 84.3113 164.213 89.6955 163.387 95.1156C163.064 97.1975 162.418 99.2435 159.69 99.3152C159.152 99.3152 159.188 99.7819 159.08 100.177C158.793 101.505 158.757 102.905 158.183 104.197C157.967 104.735 158.183 105.13 158.434 105.597C159.726 107.607 161.377 109.186 163.639 110.084C165.828 110.945 168.018 111.771 170.171 112.704C173.474 114.14 175.663 116.688 176.955 120.026C177.709 121.929 178.248 123.903 178.571 125.877C179.001 128.713 180.007 131.333 181.442 133.81C184.063 138.369 184.816 143.322 184.565 148.455C184.386 152.116 182.447 154.988 179.54 157.034C177.458 158.47 176.776 160.121 176.884 162.597C177.099 167.802 175.412 172.791 174.263 177.781C174.048 178.642 174.084 179.36 174.515 180.186C177.961 187.221 179.899 194.508 178.032 202.333C177.494 204.63 176.597 206.855 175.986 209.153C175.268 211.701 174.73 214.25 175.591 216.906C175.735 217.337 175.699 217.911 175.591 218.378C175.161 220.352 175.376 222.218 176.238 224.049C176.417 224.48 176.632 225.126 176.453 225.485C175.412 227.423 176.417 229.182 176.955 230.905C177.386 232.197 177.099 233.561 177.673 234.817C177.422 234.889 177.171 234.961 176.92 234.997C177.099 233.023 176.309 231.264 175.627 229.469C175.233 228.356 174.766 227.351 175.34 226.203C175.735 225.377 175.34 224.623 174.981 223.941C174.156 222.29 173.94 220.567 174.156 218.737C174.192 218.342 174.299 217.875 174.156 217.552C172.54 213.711 173.797 210.086 175.017 206.532C177.709 198.671 177.35 190.954 174.766 183.201C174.515 182.411 174.192 181.657 173.51 180.796C172.576 182.662 171.894 184.457 171.32 186.252C170.746 188.047 170.315 189.877 169.777 191.672C169.166 193.682 169.023 195.728 169.166 197.846C169.525 202.763 168.341 207.43 166.115 211.701C164.464 214.86 160.193 216.583 155.778 214.465C154.414 213.819 154.306 213.855 154.557 215.398C155.096 218.701 155.957 221.931 157.465 224.982C158.972 227.997 159.798 231.264 160.516 234.566C160.875 236.289 161.413 237.976 161.198 239.914C159.583 233.31 156.603 227.279 154.952 220.854C154.342 218.485 153.732 216.044 153.732 213.532C153.732 211.952 153.444 210.373 153.193 208.794C153.086 207.932 153.086 206.999 151.614 207.071C150.645 207.143 150.322 206.03 150.752 205.276C152.547 202.297 153.121 198.743 155.419 196.015C155.921 195.405 156.388 194.831 157.07 194.4C158.865 193.251 159.547 191.313 160.049 189.339C160.588 187.185 161.09 184.996 161.628 182.842C161.88 181.801 161.844 181.227 160.48 181.586C155.275 183.057 149.999 184.206 144.614 184.78C143.358 184.924 143.861 185.714 144.04 186.288C145.799 192.498 146.948 198.851 147.773 205.24C148.383 210.122 148.778 215.004 149.64 219.849C150.142 222.685 150.932 225.449 151.865 228.177C152.834 231.12 153.624 234.171 154.485 237.15C154.234 237.079 153.983 237.007 153.732 236.935C153.121 234.135 152.116 231.443 151.04 228.787C148.886 223.546 147.917 218.055 147.271 212.455C146.337 204.522 145.332 196.59 143.538 188.8C143.25 187.58 142.856 187.257 141.563 187.436C129.467 189.231 117.299 190.129 105.095 189.841C101.936 189.77 98.7412 190.057 95.5825 190.093C94.4697 190.093 94.3261 190.559 94.5056 191.457C95.0799 194.615 95.6901 197.774 96.2285 200.969C96.4439 202.297 96.8746 203.625 96.7669 205.025C96.1208 205.025 96.1209 204.594 96.0132 204.307C94.6851 200.035 93.2134 195.8 93.2134 191.277C93.2134 190.559 92.998 190.021 92.2442 189.77C92.0648 189.698 91.8135 189.59 91.7776 189.447C91.3827 187.544 89.9111 188.226 88.7625 188.262C80.2913 188.693 71.9279 187.688 63.5644 186.467C59.1853 185.821 54.7703 185.714 50.4271 186.862C49.6733 187.078 49.2784 186.862 49.2066 186.037C48.3451 176.166 47.2324 166.259 47.9862 156.316C48.4169 150.393 49.4938 144.507 50.2476 138.62C50.6424 135.461 51.145 132.338 50.9296 129.144C50.6424 124.585 45.7249 120.493 41.3457 121.175C39.228 121.498 37.6486 122.79 36.2487 124.298C35.3872 125.231 34.4899 126.129 33.8797 127.277C33.772 127.457 33.6284 127.744 33.3412 127.528C33.1617 127.385 33.2336 127.241 33.2695 127.026C34.4899 122.108 40.9868 118.411 45.5813 120.098C48.5605 121.211 50.7142 123.293 51.8269 126.272C52.2218 127.349 52.832 127.672 53.6934 127.062C57.0316 124.693 60.6211 122.503 61.0878 117.837C61.2313 116.401 61.5544 115.037 62.4876 113.817C63.1337 112.991 63.2414 111.878 63.385 110.837C63.4568 110.048 63.6003 109.258 63.6362 108.468C63.6362 107.499 64.4977 106.386 63.8516 105.669C63.6003 105.381 62.1646 106.099 61.3031 106.386C59.4007 107.033 57.3906 107.068 55.4164 107.033C52.9397 107.033 50.4629 106.889 47.9862 107.212C46.0479 107.463 44.2173 108.002 43.1045 110.012C42.6379 109.186 42.0995 108.361 40.9868 108.72C39.9099 109.043 39.6587 110.048 39.5869 110.981C39.4433 112.56 39.1921 114.176 39.9458 115.647C40.0894 115.934 40.0894 116.078 39.874 116.257C39.4792 116.545 39.3715 116.186 39.2279 115.934C38.0075 113.673 37.8999 111.376 38.9408 109.079C39.5869 107.679 41.1663 107.248 42.4585 108.109C43.0687 108.54 43.3558 108.576 43.8224 107.93C44.8275 106.458 46.4068 106.028 48.0939 105.92C51.0731 105.74 54.0524 106.279 57.0317 105.992C59.2571 105.776 61.4108 105.31 63.4927 104.376C64.6772 103.838 65.1797 103.048 64.8566 101.792C63.708 97.0898 61.2313 93.2849 57.2111 90.5211C48.6323 84.6702 36.7871 87.9008 30.9722 98.1666C28.6032 102.33 27.4904 106.889 26.1982 111.412C24.906 115.863 23.3984 120.206 21.7473 124.513C19.5218 130.328 18.5527 136.251 19.809 142.461C20.3115 144.901 20.2756 147.378 19.7013 149.819C19.1629 150.68 18.9475 151.721 18.3014 152.547C17.8707 153.085 17.763 152.87 17.5476 152.475L17.6194 152.583ZM162.669 149.281C162.31 149.352 162.131 149.532 162.023 149.855C161.377 150.178 160.911 150.716 160.659 151.398C159.834 152.439 159.726 153.48 160.48 154.593C160.731 155.418 161.126 156.172 161.772 156.782C161.772 157.141 161.987 157.393 162.31 157.536C162.418 157.68 162.526 157.823 162.669 157.967C162.705 158.326 162.957 158.505 163.28 158.577C163.351 158.972 163.639 159.152 163.998 159.259C164.105 159.654 164.392 159.798 164.751 159.834C165.003 160.121 165.29 160.336 165.685 160.372C166.008 160.731 166.402 160.874 166.905 160.803C167.264 160.982 167.659 161.054 168.09 160.946C169.454 161.269 170.71 160.874 171.894 160.228C172.002 160.192 172.146 160.157 172.253 160.085C172.899 160.013 173.474 159.762 173.904 159.223H173.976L174.012 159.152C174.263 159.152 174.479 159.116 174.622 158.828L175.197 158.434C175.663 158.398 176.202 158.47 176.417 157.895C177.853 156.89 179.145 155.777 180.33 154.521C181.801 152.942 182.986 151.111 183.129 148.922C183.345 145.189 183.058 141.491 181.729 137.974C181.478 136.897 181.047 135.856 180.33 134.959C180.33 134.6 180.15 134.312 179.899 134.097C179.791 133.415 179.504 132.841 179.001 132.302C178.642 132.984 178.571 133.523 178.607 134.133C178.571 134.312 178.499 134.528 178.463 134.707C178.284 134.887 178.212 135.066 178.284 135.318C178.212 135.533 178.14 135.748 178.032 136C177.745 136.215 177.602 136.466 177.566 136.825H177.494V136.969C177.135 137.256 176.812 137.579 176.453 137.866C176.13 137.974 175.843 138.081 175.52 138.189C174.909 138.046 174.299 138.081 173.689 138.189C172.899 138.01 172.11 138.01 171.356 138.189C170.997 138.081 170.746 138.225 170.53 138.512C169.489 138.907 168.592 139.517 167.766 140.235C167.336 140.343 167.013 140.594 166.833 140.989C166.079 141.312 165.577 141.886 165.11 142.532C164.895 142.855 164.68 143.214 164.931 143.609C165.182 144.04 165.613 143.932 165.972 143.789C167.264 143.358 168.556 142.927 169.812 142.496L170.387 142.389C171.176 142.317 172.002 142.245 172.792 142.173C172.899 142.281 173.007 142.389 173.115 142.461C173.151 142.676 173.187 142.891 173.222 143.071L171.571 144.542C171.212 144.542 170.961 144.722 170.746 145.009C170.638 145.081 170.494 145.153 170.387 145.189C169.848 145.332 169.31 145.404 168.951 145.906C168.592 145.906 168.233 146.05 167.982 146.337C167.623 146.301 167.372 146.445 167.156 146.732C167.049 146.768 166.905 146.84 166.797 146.876C166.438 146.876 166.187 147.055 165.972 147.342C165.074 147.629 164.249 148.096 163.531 148.706C163.172 148.814 162.813 148.922 162.598 149.281H162.669ZM56.4573 46.0477C56.1343 45.7246 55.7394 45.6887 55.3446 45.7605C54.196 45.7964 52.8679 45.1862 52.0782 46.622C51.8628 46.7656 51.7193 46.9809 51.8269 47.2322C51.9346 47.4476 52.1141 47.4476 52.2577 47.2322C53.2268 47.2322 54.196 46.7297 55.201 46.9809C55.4882 47.2681 55.8112 47.1604 56.1343 47.0886C56.3856 47.1604 56.6009 47.1604 56.7804 46.9092C57.4265 46.8374 58.0726 46.8374 58.6828 46.7297C59.652 46.5861 59.4725 45.5092 60.0468 45.0067C60.2622 44.8273 60.0468 44.576 59.8314 44.3965C58.7187 43.3197 55.1651 43.4633 53.9447 44.7555C54.9857 44.7555 55.883 44.9709 56.7445 45.3657C57.3547 45.6528 57.1752 45.8682 56.6727 46.0477C56.6009 45.9759 56.5291 45.94 56.4573 46.0118V46.0477ZM84.6346 63.9591C85.173 63.9591 85.7114 63.995 86.2498 63.995C87.0036 63.995 88.0805 64.6411 88.4394 63.9232C88.906 63.0617 88.0087 62.2002 87.4702 61.4106C87.3985 61.3029 87.2908 61.1593 87.1831 61.0516C81.0451 54.7342 73.9021 51.8626 65.1079 54.6265C63.8516 55.0213 62.5594 55.2367 62.1287 56.816C61.9133 57.5698 61.1236 58.0365 60.4058 58.3595C59.5084 58.7544 59.5443 59.221 60.0468 59.9389C63.9952 65.9333 69.0205 68.0869 76.0558 65.8974C76.1276 66.1127 76.1993 66.3281 76.307 66.5435C75.6609 66.6512 75.0507 66.7589 74.4046 66.8665C69.7024 67.6921 65.3233 67.1896 61.9133 63.4207C60.9442 62.3438 60.0109 61.2311 59.293 60.0466C58.7546 59.1492 58.2521 59.0415 57.3906 59.4723C56.6009 59.8671 55.7036 60.0466 54.8062 60.0825C52.0782 60.1902 51.6116 60.6568 52.0064 63.4565C52.2936 65.4307 51.9346 67.0819 50.3194 68.3741C49.3502 69.1638 49.0272 70.2406 48.8118 71.3893C48.417 71.9277 48.417 72.502 48.5605 73.1122C48.3811 74.0096 48.381 74.871 48.5964 75.7325C48.4169 76.0556 48.5247 76.3427 48.8118 76.5581C51.145 82.8755 55.2369 87.3623 61.9133 89.1571C63.0978 89.4801 63.6721 90.1621 63.4568 91.239C62.9183 94.0387 63.9952 96.336 65.3233 98.5973C65.431 98.8127 65.5387 99.064 65.6105 99.2793C65.6105 99.6383 65.6105 99.9613 65.9694 100.177C66.2925 102.582 65.754 104.879 65.0361 107.176C64.749 108.074 64.7131 108.935 65.6823 109.689C67.9436 111.376 70.1691 113.135 72.3227 114.929C74.4405 116.724 77.2403 117.765 78.5325 120.493C78.7479 120.96 79.2504 121.103 79.5734 120.314C80.1837 118.914 80.758 117.442 81.6195 116.222C82.4809 114.965 82.3373 114.319 81.1887 113.314C77.2762 109.976 75.2302 105.74 75.8045 100.5C75.9122 99.6742 75.5174 99.3152 74.9431 98.9922C73.5791 98.1666 72.574 97.0539 72.3227 95.4027C72.5022 95.4745 72.7176 95.5822 72.8971 95.654C72.8971 96.1565 73.1483 96.5873 73.4355 96.8385C76.7736 99.6742 80.5426 101.325 84.9935 101.002C86.178 100.931 86.6447 100.069 86.9319 99.0281C87.1113 98.3102 87.0754 97.5205 87.6856 96.9821C88.1522 96.5514 88.0446 95.8335 88.2959 95.4386C89.0496 94.1464 89.4086 92.8183 89.3368 91.3466C89.3368 91.2031 89.6957 91.0236 89.9111 90.9518C91.9571 90.0544 92.0648 89.7314 91.0238 87.7213C89.5522 84.8856 88.9779 81.9782 90.1983 78.8912C90.5213 78.1015 90.7367 77.276 90.952 76.4863C91.4546 74.5121 91.9212 72.5379 91.7058 70.4919C91.634 69.774 91.4905 69.3433 90.5213 69.4868C87.8292 69.8817 87.1113 68.9843 87.8292 66.3281C87.8651 66.1486 87.9728 65.9692 88.0087 65.7538C88.1164 65.3231 87.9369 65.1436 87.5062 65.1077C86.2499 64.9641 83.809 66.3281 83.1629 67.4408C81.8707 69.5586 81.2964 71.7482 81.6195 74.2249C81.9784 77.0247 81.0451 79.3937 78.7479 81.1526C77.9582 81.7628 77.2044 82.373 76.7019 83.2704C76.5224 83.1986 76.3788 83.0909 76.1993 83.0191C76.7378 82.3371 77.2044 81.5474 77.8864 80.9731C80.2554 78.9989 80.9733 76.5222 80.5067 73.5429C80.1836 71.4969 80.5785 69.5227 81.7271 67.7639C82.3374 67.5126 82.5527 67.0101 82.7322 66.3999C81.9425 66.2563 81.4759 66.6153 81.081 67.1178C79.717 67.6562 78.9991 68.769 78.5684 70.0612C78.1018 71.461 77.8505 72.9327 77.3839 74.3685C76.2711 77.7067 74.5841 80.4706 70.5639 80.7936C70.3845 80.5424 70.4921 80.2911 70.6357 80.0758C72.5381 79.8963 73.9021 78.8912 74.8713 77.276C75.9122 75.5171 76.4865 73.5788 76.8096 71.6046C77.1685 69.4868 77.9941 67.6562 79.6811 66.2922C81.3323 65.5384 83.1988 65.1436 84.6346 63.9591ZM165.254 162.454C165.182 163.531 165.146 164.607 165.074 165.684C164.859 165.864 164.859 166.079 164.967 166.295C164.895 167.264 164.823 168.269 164.751 169.238C164.5 169.633 164.536 170.028 164.608 170.458C164.213 172.827 163.998 175.196 163.89 177.601C163.674 177.781 163.674 177.996 163.782 178.212C163.531 179.97 163.244 181.765 162.992 183.524C162.382 183.596 162.49 184.026 162.49 184.421C161.88 186.719 161.27 189.016 160.695 191.313C160.372 192.605 159.582 193.646 158.542 194.4C157.321 195.261 156.46 196.446 155.526 197.559C153.696 199.712 153.444 202.584 151.901 204.845C151.65 205.204 151.363 205.707 151.722 206.066C152.188 206.496 152.655 206.138 153.014 205.814C154.737 204.45 155.706 202.584 156.424 200.61C156.531 200.287 156.496 199.856 156.926 199.82C157.321 199.82 157.321 200.179 157.321 200.466C157.393 203.051 157.321 205.635 156.244 208.04C155.814 208.973 155.491 209.978 155.239 210.983C155.024 211.809 154.952 212.706 155.778 213.316C157.967 214.896 160.408 214.214 162.813 214.178C163.746 212.599 165.649 211.773 166.115 209.799C166.905 206.173 168.09 202.656 168.197 198.887C168.377 193.18 169.489 187.652 171.607 182.339C172.361 180.401 173.187 178.499 173.366 176.381C173.617 176.237 173.653 176.022 173.581 175.771C174.084 174.227 174.371 172.648 174.622 171.033C174.838 170.889 174.874 170.674 174.802 170.422C175.161 169.274 175.484 168.089 175.52 166.869C175.771 166.582 175.735 166.259 175.627 165.936C175.843 164.966 175.915 163.997 175.843 162.992C175.915 162.526 176.058 162.059 176.022 161.556C176.022 161.054 176.381 160.372 175.771 160.121C175.304 159.941 174.766 160.336 174.407 160.767C174.263 160.803 174.156 160.874 174.012 160.91C173.653 160.91 173.402 161.054 173.187 161.341C172.612 161.485 172.038 161.592 171.571 161.951C170.674 162.095 169.812 162.274 168.915 162.418C167.838 162.274 166.761 162.131 165.649 161.987C165.505 161.951 165.362 161.844 165.29 161.88C165.074 161.987 165.11 162.167 165.218 162.382L165.254 162.454ZM146.481 113.745C146.014 113.888 145.799 114.319 145.548 114.678C143.645 117.227 142.604 120.17 141.851 123.221C139.805 131.656 139.769 140.271 140.343 148.814C141.097 159.546 142.245 170.243 143.25 180.975C143.466 183.488 143.502 183.416 145.835 182.986C150.681 182.124 155.49 181.298 160.372 180.545C161.808 180.329 162.239 179.755 162.31 178.355C162.49 174.658 162.705 170.925 163.423 167.264C163.71 165.72 163.926 164.141 163.89 162.526C163.89 161.592 163.639 160.874 162.849 160.192C161.377 158.936 160.229 157.357 159.367 155.598C158.29 153.516 158.577 151.542 160.121 149.819C160.695 149.173 161.413 148.599 162.131 148.06C162.705 147.629 162.957 147.163 162.921 146.445C162.741 144.471 162.634 142.496 162.454 140.522C162.454 140.127 162.454 139.661 162.095 139.445C159.834 138.081 159.367 135.748 159.008 133.451C158.613 130.831 158.829 128.21 159.87 125.375C160.516 126.918 160.444 128.21 160.552 129.467C160.731 131.584 160.552 133.738 161.198 135.82C161.88 137.974 162.849 138.476 165.038 137.866C167.838 137.076 170.674 136.287 173.617 136.179C176.166 136.071 176.489 135.569 177.063 133.02C178.104 128.498 176.884 124.262 175.448 120.062C174.443 117.191 172.397 115.145 169.669 113.745C167.049 112.453 164.249 111.555 161.736 110.048C161.054 109.653 160.875 110.084 160.623 110.514C157.716 115.109 153.265 116.939 148.132 117.514C146.373 117.693 145.943 117.083 146.517 115.432C146.696 114.965 146.804 114.499 146.948 114.032C147.055 113.888 147.235 113.709 146.983 113.53C146.768 113.35 146.66 113.601 146.517 113.709L146.481 113.745ZM119.273 59.6876C120.206 57.2827 119.955 54.8777 119.129 52.5805C118.304 50.2114 116.94 49.9243 114.966 51.4678C112.238 53.5855 110.263 53.2266 108.54 50.1756C107.284 47.986 106.1 45.7605 104.305 43.9299C102.833 42.4582 101.326 41.6326 99.136 42.6018C96.0491 43.9658 92.7827 44.5042 89.4086 43.9658C88.1882 43.7863 87.8292 44.1812 87.7933 45.2939C87.5061 49.6371 88.7984 53.6932 90.2341 57.6775C90.5931 58.6826 90.7008 59.544 90.629 60.5132C90.4136 62.8104 89.1214 64.7488 88.6189 66.9383C88.2958 68.3382 88.583 68.7689 89.9829 68.8407C90.5572 68.8407 91.3469 68.4459 91.7058 68.9484C92.5314 70.133 92.7827 71.6405 93.7159 72.7892C93.9313 73.0404 93.8236 73.7942 94.2184 74.0814C94.9004 74.548 95.0799 75.23 95.2594 75.9479C96.0132 78.5682 97.3054 79.5014 99.9975 78.9989C104.484 78.1733 108.576 76.4145 111.735 72.9686C111.843 73.1122 111.986 73.2199 112.094 73.3635C111.52 74.4762 110.55 75.23 109.653 76.0196C108.935 76.1273 108.433 76.594 108.038 77.1683C107.787 77.3119 107.284 77.1683 107.428 77.7426C106.782 77.4554 106.458 77.8862 106.207 78.3887C105.848 78.6041 106.1 78.8194 106.207 79.0348C106.1 79.5014 105.92 79.9681 105.884 80.4347C105.741 81.6551 105.884 82.7678 106.925 83.6293H106.961C106.638 84.2036 107.176 84.419 107.428 84.742C107.499 85.7471 108.289 85.8189 109.007 85.9625C110.515 86.9675 112.202 86.9675 113.889 86.788C116.186 86.5368 118.34 85.7471 120.35 84.6703C124.155 82.6602 127.277 80.0399 127.888 75.3736C128.031 74.2608 127.888 73.3993 127.241 72.4661C125.16 69.4509 124.119 66.1128 124.083 62.4156C124.047 59.2569 124.729 56.2058 125.16 53.1189C125.985 47.0168 126.452 40.8789 124.872 34.8127C124.262 32.4795 123.293 30.3258 121.678 28.4952C121.391 28.1722 121.211 27.5979 120.493 28.0286C119.381 28.7106 118.878 27.9568 118.77 27.0236C118.663 26.1621 118.232 25.8031 117.55 25.5878C116.94 25.3724 116.33 25.1211 115.719 25.0134C106.602 23.6136 98.3822 25.6596 91.311 31.654C89.3368 33.3051 87.6139 35.2434 86.7165 37.756C85.855 40.0892 86.7165 41.6327 89.1214 42.1352C92.1725 42.8172 95.2594 42.8172 98.2386 41.7762C101.756 40.5558 104.197 42.0993 106.423 44.5042C107.894 46.0836 108.863 47.9501 109.797 49.8884C110.766 51.8626 112.13 52.2574 114.068 51.1806C114.499 50.9293 114.894 50.6063 115.289 50.3191C117.047 48.9192 118.663 49.2064 119.632 51.1806C120.996 53.9445 121.103 56.8161 119.847 59.6517L119.273 59.5799V59.6876ZM108.361 188.226C114.858 188.37 119.237 188.334 123.58 188.011C129.718 187.58 135.856 187.078 141.994 186.647C142.748 186.575 143.107 186.36 142.784 185.534C141.671 182.734 141.599 179.719 141.24 176.776C140.128 166.618 139.338 156.424 138.943 146.194C138.62 138.333 138.728 130.508 140.738 122.826C141.707 119.165 142.963 115.611 145.799 112.883C146.804 111.914 146.66 111.555 145.44 111.16C141.599 109.94 138.656 107.571 137.005 103.91C135.677 101.002 133.667 98.5256 132.231 95.7258C129.18 89.7673 126.775 83.7729 131.656 77.4554C133.344 75.2659 133.092 75.0864 130.257 74.3685C129.144 74.0813 128.785 74.3685 128.749 75.5171C128.605 78.8553 127.098 81.4756 124.549 83.5575C121.606 85.9625 118.232 87.47 114.463 88.0444C110.299 88.6905 106.064 86.9316 105.166 82.1935C105.059 81.5833 104.771 81.2603 104.161 81.4038C99.9975 82.4807 95.6901 83.0909 91.5982 84.3831C90.8085 84.6344 90.6649 84.9933 91.0238 85.7112C91.4546 86.5727 91.8853 87.47 92.2084 88.3674C92.8904 90.2339 92.4596 91.0595 90.5213 91.4184C89.5881 91.5979 89.3009 91.9568 89.7316 92.8183C89.9829 93.3208 90.2342 94.0387 89.8034 94.3618C88.6189 95.295 89.0496 97.0539 87.8292 97.9154C87.6497 98.023 87.6497 98.4538 87.6497 98.7409C87.5062 101.074 86.6088 101.971 84.2038 102.043C81.8707 102.079 79.6811 101.469 77.5992 100.464C76.989 100.177 76.4506 99.8896 76.4147 100.93C76.2352 104.125 77.1326 107.033 78.9991 109.545C80.2195 111.196 81.8707 112.524 83.5219 113.817C86.2858 115.934 88.7624 118.375 90.8802 121.103C96.1567 127.887 97.8797 135.138 94.4338 143.358C92.2442 148.563 91.3828 154.019 92.1007 159.69C92.2802 161.198 92.3519 162.741 92.3878 164.284C92.6391 171.212 92.7109 178.176 93.7518 185.067C93.8236 185.642 93.8954 186.324 93.7159 186.826C93.1775 188.262 93.8236 188.513 95.0799 188.477C100.177 188.262 105.31 188.047 108.253 188.154L108.361 188.226ZM49.8527 173.007C49.8527 175.627 49.8527 180.365 49.8527 185.067C49.8527 185.965 50.0322 186.539 51.1091 186.252C55.9189 184.852 60.8365 185.175 65.7181 185.749C74.0098 186.719 82.2656 187.436 90.629 186.97C91.993 186.898 92.3878 186.503 92.2084 185.211C92.0289 183.955 91.8853 182.662 91.7776 181.37C91.2033 175.053 91.2033 168.699 90.629 162.382C89.947 155.095 90.8444 148.168 93.7159 141.42C94.9363 138.548 95.2235 135.497 94.6133 132.374C93.3211 125.59 89.3368 120.529 84.3474 116.078C83.7013 115.504 83.3065 115.504 82.9475 116.365C82.2297 118.088 81.1887 119.667 80.1837 121.247C79.6811 122.072 78.9633 122.503 78.353 121.462C77.2403 119.56 75.4456 118.519 73.6867 117.334C70.8511 115.432 68.2308 113.242 65.7181 110.909C65.4669 110.694 65.2874 110.299 64.8566 110.443C64.4259 110.586 64.6054 111.017 64.5336 111.34C64.39 112.489 64.2465 113.601 63.6362 114.606C63.026 115.575 62.6671 116.616 62.5235 117.801C61.8774 123.293 58.0726 126.128 53.514 128.246C52.9038 128.533 52.5448 128.713 52.5448 129.467C52.5807 132.518 52.0423 135.497 51.6475 138.476C50.2476 149.245 48.2375 159.977 49.7809 172.971L49.8527 173.007ZM133.81 91.7774C133.81 94.1823 134.636 96.336 135.461 98.4897C137.651 104.053 140.522 108.899 146.876 110.658C148.635 111.16 150.25 111.34 151.865 110.335C155.885 107.858 158.254 104.376 158.506 99.6024C158.542 98.8486 158.721 98.4897 159.511 98.5973C160.264 98.705 160.875 98.3461 161.413 97.8795C162.634 96.8385 163.316 92.1004 162.526 90.6646C162.059 89.8391 161.27 89.516 160.372 89.6237C159.582 89.7314 159.259 90.3416 159.116 91.0954C159.044 91.6697 158.865 92.244 158.721 92.8183C158.613 93.1414 158.47 93.5003 158.039 93.5003C157.716 93.5003 157.537 93.2132 157.393 92.926C157.178 92.4953 156.962 92.0286 156.819 91.562C156.065 89.5519 155.06 87.6854 153.552 86.1778C153.337 85.9625 153.05 85.1728 152.583 85.8189C151.901 86.7521 151.111 86.3214 150.286 86.1419C149.711 86.0343 149.137 85.4599 148.599 85.8907C147.342 86.8598 145.943 86.788 144.507 86.7521C144.184 86.7521 143.789 86.5727 143.645 87.0752C143.358 88.2238 142.425 88.1879 141.527 88.2956C139.589 88.5828 137.794 87.829 136.036 87.2906C135.246 87.0393 134.923 87.2905 134.6 87.829C133.81 89.0494 133.667 90.4134 133.81 91.7774ZM133.128 94.7925C133.415 94.29 133.2 93.8234 133.2 93.3567C133.128 91.562 132.913 89.7673 133.631 88.0802C134.277 86.5009 134.923 86.2496 136.61 86.6086C138.082 86.9316 139.553 87.3982 141.133 87.3982C142.64 87.3982 142.64 87.47 142.245 85.8907C143.789 86.106 145.261 85.9984 146.696 85.8189C146.804 84.9933 145.727 85.0292 146.05 84.2036C147.414 84.5985 148.778 85.0651 150.142 85.424C150.573 85.5317 151.399 85.8907 151.327 84.9933C151.183 83.1986 152.08 84.0242 152.691 84.419C154.808 85.783 156.172 87.7572 157.07 90.0544C157.321 90.6646 157.393 91.3825 158.075 91.9928C158.434 90.8082 158.362 89.5519 159.547 88.9417C160.767 88.3315 161.808 88.9417 163.064 89.4442C162.598 85.4599 162.454 81.5833 160.695 77.9939C159.188 74.9428 156.89 72.825 153.66 71.7482C147.809 69.7381 142.138 70.3483 136.969 73.6506C132.482 76.5222 129.216 81.2962 130.58 87.2188C131.046 89.2648 131.441 91.3107 132.267 93.2132C132.482 93.7157 132.41 94.3977 133.128 94.7566V94.7925ZM148.204 116.293C152.08 115.755 155.526 114.391 158.254 111.448C160.3 109.258 160.265 109.294 158.506 106.925C157.752 105.92 157.465 106.063 156.783 106.997C154.808 109.653 152.547 111.986 148.886 112.166C148.491 112.166 148.204 112.381 148.204 112.776C148.204 113.745 147.845 114.606 147.522 115.504C147.342 116.114 147.558 116.329 148.168 116.293H148.204ZM90.2341 82.5166C90.2341 83.5575 90.3777 83.8088 91.0956 83.5575C94.7928 82.2653 98.5976 81.5115 102.474 81.009C103.156 80.9013 103.91 80.7577 104.628 80.5783C105.453 80.3629 105.992 79.645 105.777 78.9271C105.525 77.9939 104.807 78.7118 104.341 78.8912C103.084 79.322 101.828 79.7886 100.5 80.0039C97.09 80.5424 95.3671 79.4296 94.5056 76.0555C94.3261 75.3018 93.9672 74.6916 93.3929 74.189C93.1416 73.9737 92.998 73.5429 92.5673 73.7224C92.2442 73.866 92.316 74.2249 92.2801 74.5121C92.0647 76.0914 91.6699 77.6349 91.0956 79.1066C90.6649 80.2193 90.3059 81.368 90.2341 82.5525V82.5166ZM59.6879 52.76C59.5084 51.6831 59.4366 50.6063 59.1494 49.5654C58.8623 48.4526 57.1034 47.7347 56.1343 48.2372C53.4422 49.6012 52.3653 54.3393 54.2678 56.6725C54.6626 57.175 55.1292 57.5698 55.9548 56.9596C57.1034 56.0982 58.1444 55.129 59.1494 54.124C59.5084 53.765 59.7597 53.3343 59.6879 52.7959V52.76ZM51.2526 59.1492C51.2526 58.7185 50.8937 58.5749 50.6424 58.3595C47.3401 55.3085 47.0888 52.1857 49.9963 48.8116C50.3193 48.4167 50.5706 48.0219 50.6783 47.5194C50.7501 47.2322 50.9296 46.9451 50.6783 46.6579C50.3911 46.3348 50.0322 46.5861 49.7451 46.6938C46.6222 47.8065 45.007 50.3909 45.3659 53.765C45.6172 56.1341 48.4887 58.7902 51.2526 59.1133V59.1492ZM49.4938 81.0808C49.6732 84.5985 50.8219 86.1778 53.9088 87.147C55.0575 87.5059 56.0266 88.1161 56.9958 88.834C58.0008 89.5519 59.0058 90.3775 60.2621 90.7005C60.8365 90.8441 61.662 90.9518 61.8415 90.3416C62.0569 89.6237 61.1595 89.6596 60.7288 89.516C56.7086 88.2956 53.3704 86.1419 50.8578 82.7319C50.4629 82.1935 50.3553 81.4397 49.5297 81.0808H49.4938ZM54.8421 47.8424C53.4781 47.7347 51.8628 47.8424 51.4321 49.0987C50.786 51.037 51.2526 53.1189 52.3653 54.9854C52.2936 52.2933 53.0832 49.9602 54.878 47.8783L54.8421 47.8424ZM53.8729 58.4313C51.2885 56.4212 50.4629 53.6932 50.1758 50.5345C48.6323 52.6164 48.74 55.2367 50.4271 56.9955C51.2167 57.8211 52.0064 59.2569 53.837 58.4313H53.8729ZM62.5235 53.1548C63.7798 51.2883 63.1337 47.1963 61.4467 45.8682C60.9441 45.4734 60.5852 45.6528 60.3698 46.0836C60.0827 46.6579 59.7955 47.3758 60.1545 47.9501C61.2672 49.5294 61.8056 51.3601 62.5235 53.1548ZM47.9145 68.5536C48.6682 67.9434 48.2375 66.6153 49.0989 66.8665C49.7809 67.046 48.8477 67.9793 49.0631 68.5895C49.0631 68.6254 49.0989 68.6613 49.1707 68.733C51.791 66.8665 52.0064 64.5693 50.3911 61.9131C48.9195 63.7437 48.058 65.8615 47.9503 68.5536H47.9145ZM154.198 209.799C154.952 208.327 155.526 206.927 155.885 205.456C156.029 204.809 156.819 203.876 156.244 203.589C155.598 203.302 155.526 204.558 155.024 204.953C153.48 206.245 152.906 207.681 154.198 209.763V209.799ZM163.818 142.317C164.644 140.989 166.079 140.271 167.264 138.979C162.562 139.984 163.495 139.194 163.818 142.317ZM168.772 144.578C168.772 144.578 168.664 144.291 168.628 144.148C167.156 144.291 165.828 145.296 164.213 144.722C163.603 144.507 163.962 145.476 163.89 145.871C163.854 146.301 163.89 146.911 164.608 146.588C166.008 145.942 167.408 145.26 168.772 144.578ZM60.2621 55.8469C61.9133 54.6265 62.021 53.8727 61.1595 51.8267C60.298 52.9753 60.9082 54.3393 60.2621 55.8469ZM59.0417 55.488C58.0367 55.6674 57.8213 56.6366 57.1393 57.0673C56.8522 57.2468 56.3855 57.5698 56.7804 58.0006C57.1393 58.3595 57.6418 58.2518 57.9649 57.8929C58.5392 57.2468 58.97 56.5289 59.0417 55.488ZM62.7389 92.244C62.6671 91.8492 62.9902 91.2031 62.3082 91.239C61.9133 91.239 61.1595 91.4184 61.1954 91.9568C61.2313 92.4953 61.698 93.1414 62.2723 93.2132C62.8825 93.3208 62.6312 92.5671 62.7748 92.2081L62.7389 92.244ZM169.418 144.183C169.418 144.183 169.597 144.112 169.669 144.076C169.597 144.04 169.561 143.968 169.489 143.932C169.489 143.932 169.382 143.932 169.382 143.968C169.382 144.04 169.382 144.112 169.418 144.183Z"></path>
<path fill="#AD8B3A" d="M20.4912 150.286C21.6399 148.742 22.8244 147.199 23.973 145.655C25.4806 143.609 25.5524 141.204 25.696 138.835C25.7678 137.902 25.696 136.933 25.7677 136C25.9472 134.277 27.0241 133.738 28.6035 134.528C29.8957 135.174 30.1469 136.359 30.2546 137.651C30.446 139.948 31.5109 140.439 33.4492 139.122C34.5619 138.369 35.7106 137.723 37.0028 137.256C42.0998 135.389 46.6225 137.938 47.484 143.286C47.8429 145.655 47.7352 148.024 47.4122 150.393C47.0891 152.655 45.797 154.019 43.751 154.88C41.8486 155.706 39.8744 156.136 37.8643 156.316C36.3208 156.459 36.2131 157.177 36.3567 158.434C36.8951 163.208 38.1873 167.766 39.6231 172.325C40.5563 175.268 41.5614 178.14 42.4946 181.083C43.5356 184.421 43.5715 187.688 42.028 190.954C40.8794 193.395 41.7409 197.236 43.751 199.066C44.4689 199.748 45.2944 199.892 46.2277 199.569C47.5199 199.138 48.6326 198.42 49.53 197.415C49.8172 197.092 50.0684 196.949 50.5709 196.769C49.4941 198.959 47.9147 200.323 45.7611 200.933C44.6124 201.256 43.5356 200.825 42.6741 199.928C40.0179 197.236 39.2641 193.323 40.9153 189.913C42.2434 187.149 42.2075 184.35 41.2742 181.514C39.4795 175.878 37.3617 170.387 36.0336 164.608C35.5311 162.418 35.0645 160.228 34.9209 158.003C34.8491 157.07 34.5978 156.711 33.5928 156.747C27.5625 156.854 23.7218 159.726 21.7476 165.505C20.1682 170.099 20.6349 174.586 21.9989 179.109C22.6809 181.299 23.2552 183.488 23.8295 185.714C24.7268 189.231 24.8345 192.785 24.1525 196.338C23.4705 199.892 23.6859 203.446 24.5833 206.963C24.8704 208.076 24.4397 209.655 25.2294 210.194C26.0908 210.768 27.2395 209.548 28.3163 209.26C35.3157 207.322 43.2484 211.486 45.5816 218.378C46.12 219.957 46.12 221.608 45.6175 223.223C45.2944 224.264 44.8996 225.305 44.397 226.274C41.9203 230.905 44.5406 234.135 48.848 235.966C49.6377 236.289 50.1761 236.935 50.894 237.33C48.4172 236.253 45.6534 235.643 43.8587 233.382C42.5306 231.695 41.9921 229.756 42.6741 227.638C43.1408 226.239 43.6792 224.839 44.1817 223.439C44.7919 221.716 44.7201 220.029 44.0022 218.378C41.4178 212.168 33.2338 208.686 27.1676 211.235C25.8036 211.809 24.5833 212.455 24.691 214.322C24.7627 215.578 23.9371 216.655 23.4346 217.767C23.1834 218.342 22.645 218.665 22.1065 218.88C20.922 219.347 20.1323 218.737 20.3477 217.444C20.6348 215.829 21.4963 214.465 22.5731 213.281C23.5423 212.204 23.7577 211.055 23.4705 209.727C23.0398 207.681 22.609 205.635 22.1783 203.625C21.6399 201.184 21.927 198.743 22.3578 196.374C23.2551 191.636 22.4655 187.113 21.1732 182.591C20.24 179.36 19.235 176.13 19.0555 172.72C19.0555 172.145 18.8401 171.715 18.3017 171.356C16.2198 169.992 15.3942 167.874 15.143 165.541C14.784 162.167 15.4301 158.936 17.0454 155.885C17.4761 155.06 18.194 154.27 17.9069 153.193C19.4862 152.87 19.8093 151.398 20.563 150.286H20.4912ZM45.9046 146.265C45.8687 145.476 45.8328 144.578 45.7611 143.681C45.2585 139.23 41.7768 136.969 37.4694 138.297C35.9977 138.763 34.6696 139.553 33.3774 140.379C32.4083 140.989 31.5468 142.353 30.2905 141.779C28.9265 141.168 29.5726 139.589 29.3572 138.405C29.2136 137.615 29.3572 136.789 28.9265 136.071C28.5675 135.461 28.0291 135.066 27.3471 135.21C26.6651 135.353 26.7728 136.035 26.7728 136.574C26.7369 137.758 26.701 138.943 26.701 140.127C26.701 142.963 25.8036 145.44 24.0807 147.701C22.6449 149.568 21.3527 151.578 20.0246 153.552C17.4043 157.465 15.8609 161.628 16.507 166.438C16.6865 167.838 17.189 169.13 18.0504 170.243C18.2299 170.494 18.4094 170.746 18.7683 170.638C19.1273 170.53 19.0914 170.207 19.1273 169.92C19.1632 169.669 19.1632 169.417 19.1991 169.166C20.3836 160.982 25.337 156.244 33.4492 155.454C36.3208 155.167 39.1206 154.593 41.8844 153.696C44.3253 152.906 45.7969 151.47 45.7969 148.778C45.7969 147.952 45.9046 147.091 45.9405 146.158L45.9046 146.265ZM23.3628 214.07C22.5372 215.111 21.9629 215.901 21.6399 216.834C21.5322 217.157 21.2091 217.516 21.5681 217.767C21.9629 218.019 22.3219 217.588 22.5014 217.301C23.0039 216.439 23.4705 215.542 23.3628 214.106V214.07Z"></path>
</g>
<path stroke-miterlimit="10" stroke-width="1.74095" stroke="#AD8B3A" d="M197.22 3H3V197.22H197.22V3Z"></path>
<mask height="177" width="174" y="21" x="13" maskUnits="userSpaceOnUse" style="mask-type:luminance" id="mask1_2561_397">
<path fill="white" d="M186.496 21.4534H13.7589V197.219H186.496V21.4534Z"></path>
</mask>
<g mask="url(#mask1_2561_397)">
<path fill="#AD8B3A" d="M20.3048 151.224C21.0011 149.204 21.7323 147.185 21.593 144.956C21.4886 143.529 21.3841 142.101 21.0359 140.674C19.9565 136.217 20.7922 131.864 21.8368 127.547C23.8563 119.26 27.0248 111.356 29.5318 103.208C31.4816 96.9062 35.2072 91.6834 41.3702 88.5845C44.0164 87.2614 46.802 86.6695 49.7267 86.6695C50.7365 86.6695 51.0847 86.5302 50.6669 85.3812C49.9009 83.1528 49.4482 80.8547 49.2044 78.487C48.9259 75.9104 48.1947 73.4383 48.2992 70.792C48.4036 67.9369 48.9259 65.2558 50.7713 62.9578C50.9802 62.7141 51.3633 62.4703 51.0499 62.1221C50.8062 61.8436 50.4231 61.9828 50.0749 62.0525C48.2643 62.4703 46.802 63.3756 45.9315 64.9773C46.1404 63.1667 47.4635 62.2614 49.0304 61.565C49.3438 61.4257 49.9008 61.4606 49.866 60.9383C49.866 60.5205 49.4134 60.3464 49.0652 60.1723C46.593 58.7447 45.6181 56.5859 45.7922 53.7656C46.0707 50.0051 48.4384 48.1946 51.7114 47.1848C52.6167 46.9063 53.3479 46.5233 54.0791 45.9313C56.029 44.3993 58.327 44.5734 60.5554 45.026C61.8437 45.3046 62.8535 46.3143 64.0373 46.9063C65.3953 47.6026 65.2212 49.3088 65.5694 50.6319C65.4649 51.3283 65.4301 52.0247 65.5694 52.6862L65.2908 53.5567C64.9426 53.5915 65.0123 53.8004 65.1167 54.0093C65.1167 54.079 65.0819 54.1138 65.0471 54.1834C65.0471 54.1834 65.0471 54.2531 65.0471 54.2879C64.9078 54.462 64.7337 54.6709 64.9775 54.845C65.1167 54.9494 65.3256 54.8102 65.3953 54.6012C65.639 54.5316 65.8827 54.462 66.1264 54.3923C66.5443 55.5414 67.2406 54.7405 67.8674 54.6709C71.21 53.6263 74.5874 53.8352 77.9301 54.7057C82.4913 55.8895 86.0081 58.6054 88.898 62.2266C89.107 62.4703 89.1418 62.9578 89.5596 62.8882C90.0471 62.8185 89.9426 62.2962 90.0122 61.948C90.4301 60.0678 89.5248 58.4661 88.8632 56.8645C87.4009 53.2433 86.3215 49.6221 87.3312 45.6876C87.4357 45.3046 87.2615 45.0957 86.983 44.8171C85.068 43.0414 85.0331 40.9174 86.0081 38.7238C87.8187 34.65 91.0916 31.8645 94.8173 29.6709C100.667 26.2238 107.004 25.0748 113.724 25.806C115.952 26.0497 118.25 26.3979 119.643 28.5567C119.748 28.696 119.922 28.8352 120.096 28.9049C124.413 30.5065 125.493 34.3366 126.398 38.2015C127.895 44.7823 127.094 51.3283 125.806 57.8046C124.831 62.7489 124.762 67.5887 126.851 72.3241C127.303 73.3338 127.826 74.0999 129.009 74.3088C129.671 74.4132 130.333 74.6221 130.959 74.8311C132.387 75.2837 133.501 74.9703 134.824 74.0998C140.221 70.5135 146.14 69.7475 152.338 71.6625C156.482 72.9508 159.232 75.8756 160.521 79.9494C162.122 84.9982 162.505 90.221 161.704 95.4787C161.391 97.4982 160.764 99.4828 158.118 99.5525C157.596 99.5525 157.631 100.005 157.526 100.388C157.248 101.676 157.213 103.034 156.656 104.288C156.447 104.81 156.656 105.193 156.899 105.646C158.153 107.596 159.755 109.128 161.948 109.998C164.072 110.834 166.196 111.635 168.285 112.54C171.489 113.933 173.613 116.405 174.866 119.643C175.597 121.488 176.119 123.403 176.433 125.318C176.851 128.069 177.826 130.611 179.218 133.013C181.76 137.435 182.491 142.24 182.248 147.22C182.074 150.771 180.193 153.557 177.373 155.541C175.353 156.934 174.692 158.536 174.796 160.938C175.005 165.987 173.369 170.827 172.255 175.667C172.046 176.502 172.08 177.199 172.498 178C175.841 184.824 177.721 191.892 175.911 199.483C175.388 201.711 174.518 203.87 173.926 206.098C173.229 208.571 172.707 211.043 173.543 213.619C173.682 214.037 173.647 214.594 173.543 215.047C173.125 216.962 173.334 218.773 174.17 220.548C174.344 220.966 174.553 221.593 174.379 221.941C173.369 223.821 174.344 225.527 174.866 227.199C175.284 228.452 175.005 229.775 175.562 230.994C175.319 231.064 175.075 231.133 174.831 231.168C175.005 229.253 174.239 227.547 173.578 225.806C173.195 224.727 172.742 223.752 173.299 222.637C173.682 221.837 173.299 221.105 172.951 220.444C172.15 218.842 171.941 217.171 172.15 215.395C172.185 215.012 172.289 214.559 172.15 214.246C170.583 210.52 171.802 207.004 172.986 203.557C175.597 195.931 175.249 188.445 172.742 180.924C172.498 180.158 172.185 179.427 171.523 178.591C170.618 180.402 169.957 182.143 169.399 183.884C168.842 185.625 168.424 187.401 167.902 189.142C167.31 191.091 167.171 193.076 167.31 195.13C167.658 199.901 166.509 204.427 164.351 208.571C162.749 211.635 158.606 213.306 154.323 211.252C153 210.625 152.895 210.66 153.139 212.157C153.661 215.36 154.497 218.494 155.959 221.454C157.422 224.378 158.223 227.547 158.919 230.75C159.267 232.421 159.789 234.058 159.58 235.938C158.014 229.532 155.124 223.682 153.522 217.449C152.93 215.151 152.338 212.784 152.338 210.346C152.338 208.814 152.06 207.282 151.816 205.75C151.711 204.915 151.711 204.009 150.284 204.079C149.344 204.149 149.03 203.069 149.448 202.338C151.189 199.448 151.746 196.001 153.975 193.355C154.462 192.763 154.915 192.206 155.576 191.788C157.317 190.674 157.979 188.793 158.466 186.878C158.989 184.789 159.476 182.665 159.998 180.576C160.242 179.566 160.207 179.009 158.884 179.357C153.835 180.785 148.717 181.899 143.494 182.456C142.275 182.596 142.763 183.362 142.937 183.919C144.643 189.942 145.757 196.105 146.558 202.303C147.15 207.039 147.533 211.774 148.369 216.474C148.856 219.225 149.622 221.906 150.528 224.552C151.468 227.408 152.234 230.367 153.069 233.257C152.826 233.188 152.582 233.118 152.338 233.048C151.746 230.332 150.771 227.721 149.727 225.144C147.638 220.061 146.697 214.733 146.071 209.302C145.165 201.607 144.191 193.912 142.45 186.356C142.171 185.172 141.788 184.859 140.535 185.033C128.801 186.774 116.997 187.644 105.158 187.366C102.094 187.296 98.9956 187.575 95.9315 187.61C94.8521 187.61 94.7128 188.062 94.8869 188.933C95.444 191.997 96.0359 195.061 96.5582 198.16C96.7671 199.448 97.1849 200.736 97.0805 202.094C96.4537 202.094 96.4538 201.676 96.3493 201.398C95.061 197.254 93.6334 193.146 93.6334 188.759C93.6334 188.062 93.4245 187.54 92.6933 187.296C92.5192 187.227 92.2755 187.122 92.2406 186.983C91.8576 185.137 90.4301 185.799 89.3159 185.834C81.0986 186.252 72.9858 185.277 64.873 184.093C60.625 183.466 56.3424 183.362 52.1293 184.476C51.3981 184.685 51.015 184.476 50.9454 183.675C50.1097 174.1 49.0304 164.49 49.7615 154.845C50.1794 149.1 51.224 143.39 51.9552 137.679C52.3382 134.615 52.8256 131.586 52.6167 128.487C52.3382 124.065 47.568 120.096 43.3201 120.757C41.2658 121.071 39.7337 122.324 38.3758 123.786C37.5401 124.692 36.6697 125.562 36.0777 126.676C35.9733 126.851 35.834 127.129 35.5554 126.92C35.3813 126.781 35.451 126.642 35.4858 126.433C36.6697 121.663 42.9719 118.076 47.4287 119.713C50.3187 120.792 52.4078 122.812 53.4872 125.701C53.8702 126.746 54.4621 127.059 55.2977 126.468C58.5359 124.169 62.0178 122.046 62.4705 117.519C62.6098 116.126 62.9231 114.803 63.8284 113.619C64.4552 112.819 64.5596 111.739 64.6989 110.729C64.7685 109.963 64.9078 109.197 64.9426 108.431C64.9426 107.491 65.7783 106.412 65.1515 105.715C64.9078 105.437 63.515 106.133 62.6794 106.412C60.834 107.039 58.8841 107.073 56.9691 107.039C54.5666 107.039 52.1641 106.899 49.7615 107.213C47.8813 107.456 46.1056 107.979 45.0262 109.929C44.5735 109.128 44.0513 108.327 42.9719 108.675C41.9273 108.988 41.6836 109.963 41.6139 110.869C41.4747 112.401 41.2309 113.968 41.9621 115.395C42.1014 115.674 42.1014 115.813 41.8925 115.987C41.5095 116.266 41.405 115.917 41.2657 115.674C40.0819 113.48 39.9775 111.252 40.9872 109.023C41.614 107.665 43.146 107.247 44.3995 108.083C44.9914 108.501 45.2699 108.536 45.7225 107.909C46.6975 106.481 48.2295 106.064 49.866 105.959C52.756 105.785 55.646 106.307 58.5359 106.029C60.6947 105.82 62.7839 105.367 64.8034 104.462C65.9524 103.94 66.4398 103.174 66.1264 101.955C65.0122 97.3937 62.6098 93.7029 58.71 91.0218C50.3883 85.3463 38.8981 88.4801 33.2574 98.4383C30.9594 102.477 29.88 106.899 28.6265 111.286C27.373 115.604 25.9106 119.817 24.3089 123.995C22.1501 129.636 21.2101 135.381 22.4287 141.405C22.9162 143.773 22.8814 146.175 22.3243 148.543C21.802 149.378 21.5931 150.388 20.9663 151.189C20.5485 151.711 20.444 151.502 20.2351 151.119L20.3048 151.224ZM161.008 148.02C160.66 148.09 160.486 148.264 160.381 148.578C159.755 148.891 159.302 149.413 159.058 150.075C158.257 151.084 158.153 152.094 158.884 153.174C159.128 153.974 159.511 154.706 160.138 155.298C160.138 155.646 160.347 155.89 160.66 156.029C160.764 156.168 160.869 156.307 161.008 156.447C161.043 156.795 161.287 156.969 161.6 157.039C161.67 157.422 161.948 157.596 162.296 157.7C162.401 158.083 162.679 158.222 163.028 158.257C163.271 158.536 163.55 158.745 163.933 158.779C164.246 159.128 164.629 159.267 165.117 159.197C165.465 159.371 165.848 159.441 166.266 159.337C167.589 159.65 168.807 159.267 169.957 158.64C170.061 158.605 170.2 158.571 170.305 158.501C170.931 158.431 171.489 158.188 171.906 157.665H171.976L172.011 157.596C172.255 157.596 172.463 157.561 172.603 157.282L173.16 156.899C173.613 156.864 174.135 156.934 174.344 156.377C175.736 155.402 176.99 154.323 178.139 153.104C179.567 151.572 180.716 149.796 180.855 147.672C181.064 144.051 180.785 140.465 179.497 137.052C179.253 136.008 178.835 134.998 178.139 134.128C178.139 133.779 177.965 133.501 177.721 133.292C177.617 132.63 177.338 132.073 176.851 131.551C176.502 132.213 176.433 132.735 176.468 133.327C176.433 133.501 176.363 133.71 176.328 133.884C176.154 134.058 176.085 134.232 176.154 134.476C176.085 134.685 176.015 134.894 175.911 135.137C175.632 135.346 175.493 135.59 175.458 135.938H175.388V136.078C175.04 136.356 174.727 136.669 174.379 136.948C174.065 137.052 173.787 137.157 173.473 137.261C172.881 137.122 172.289 137.157 171.697 137.261C170.931 137.087 170.165 137.087 169.434 137.261C169.086 137.157 168.842 137.296 168.633 137.575C167.624 137.958 166.753 138.55 165.952 139.246C165.535 139.351 165.221 139.594 165.047 139.977C164.316 140.291 163.828 140.848 163.376 141.474C163.167 141.788 162.958 142.136 163.202 142.519C163.445 142.937 163.863 142.832 164.211 142.693C165.465 142.275 166.718 141.857 167.937 141.44L168.494 141.335C169.26 141.266 170.061 141.196 170.827 141.126C170.931 141.231 171.036 141.335 171.14 141.405C171.175 141.614 171.21 141.823 171.245 141.997L169.643 143.424C169.295 143.424 169.051 143.598 168.842 143.877C168.738 143.947 168.599 144.016 168.494 144.051C167.972 144.19 167.45 144.26 167.101 144.747C166.753 144.747 166.405 144.887 166.161 145.165C165.813 145.13 165.569 145.27 165.36 145.548C165.256 145.583 165.117 145.653 165.012 145.688C164.664 145.688 164.42 145.862 164.211 146.14C163.341 146.419 162.54 146.871 161.844 147.463C161.496 147.568 161.147 147.672 160.938 148.02H161.008ZM57.9788 47.8812C57.6654 47.5678 57.2824 47.533 56.8994 47.6027C55.7852 47.6375 54.4969 47.0455 53.7309 48.4383C53.522 48.5776 53.3827 48.7865 53.4872 49.0302C53.5917 49.2391 53.7657 49.2391 53.905 49.0302C54.8451 49.0302 55.7853 48.5427 56.7602 48.7865C57.0387 49.065 57.3521 48.9606 57.6655 48.8909C57.9092 48.9606 58.1181 48.9606 58.2922 48.7169C58.9189 48.6472 59.5457 48.6472 60.1376 48.5428C61.0777 48.4035 60.9036 47.3589 61.4607 46.8714C61.6696 46.6973 61.4607 46.4536 61.2518 46.2795C60.1724 45.2349 56.7253 45.3742 55.5415 46.6277C56.5513 46.6277 57.4217 46.8366 58.2574 47.2196C58.8493 47.4982 58.6752 47.7071 58.1877 47.8812C58.1181 47.8115 58.0485 47.7767 57.9788 47.8464V47.8812ZM85.3117 65.2558C85.834 65.2558 86.3563 65.2906 86.8785 65.2906C87.6097 65.2906 88.6543 65.9174 89.0025 65.221C89.4551 64.3854 88.5847 63.5497 88.0624 62.7837C87.9927 62.6792 87.8883 62.54 87.7838 62.4355C81.8298 56.3074 74.9008 53.5218 66.3702 56.2029C65.1515 56.5859 63.898 56.7948 63.4802 58.3269C63.2713 59.0581 62.5053 59.5107 61.8089 59.8241C60.9384 60.2071 60.9732 60.6597 61.4607 61.3561C65.2908 67.1709 70.1655 69.26 76.99 67.136C77.0596 67.345 77.1292 67.5539 77.2337 67.7628C76.6069 67.8672 76.015 67.9717 75.3883 68.0762C70.827 68.877 66.5791 68.3895 63.2713 64.7336C62.3312 63.689 61.4259 62.6096 60.7295 61.4606C60.2073 60.5901 59.7198 60.4857 58.8841 60.9035C58.1181 61.2865 57.2477 61.4606 56.3772 61.4954C53.7309 61.5999 53.2783 62.0525 53.6613 64.7684C53.9399 66.6834 53.5917 68.2851 52.0248 69.5386C51.0847 70.3046 50.7713 71.3492 50.5624 72.4634C50.1794 72.9856 50.1794 73.5427 50.3187 74.1347C50.1446 75.0051 50.1445 75.8408 50.3535 76.6765C50.1794 76.9898 50.2839 77.2684 50.5624 77.4773C52.8257 83.6054 56.795 87.9578 63.2713 89.6987C64.4203 90.0121 64.9774 90.6737 64.7685 91.7182C64.2462 94.4341 65.2908 96.6625 66.5791 98.8561C66.6836 99.065 66.788 99.3087 66.8577 99.5177C66.8577 99.8658 66.8577 100.179 67.2059 100.388C67.5192 102.721 66.9969 104.949 66.3005 107.178C66.022 108.048 65.9872 108.884 66.9273 109.615C69.1209 111.252 71.2796 112.958 73.3688 114.699C75.4231 116.44 78.139 117.449 79.3925 120.096C79.6014 120.548 80.0888 120.688 80.4022 119.922C80.9941 118.564 81.5513 117.136 82.3869 115.952C83.2226 114.734 83.0833 114.107 81.9691 113.132C78.1738 109.894 76.1891 105.785 76.7462 100.702C76.8507 99.9007 76.4677 99.5525 75.9106 99.2391C74.5875 98.4383 73.6125 97.3589 73.3688 95.7572C73.5429 95.8268 73.7518 95.9313 73.9259 96.0009C73.9259 96.4884 74.1696 96.9062 74.4482 97.15C77.6863 99.9007 81.3423 101.502 85.6599 101.189C86.8089 101.119 87.2616 100.284 87.5401 99.2739C87.7142 98.5775 87.6794 97.8115 88.2713 97.2892C88.7239 96.8714 88.6195 96.175 88.8632 95.792C89.5944 94.5386 89.9426 93.2503 89.873 91.8227C89.873 91.6834 90.2212 91.5093 90.4301 91.4397C92.4148 90.5692 92.5192 90.2558 91.5095 88.306C90.0819 85.5553 89.5248 82.7349 90.7086 79.7405C91.022 78.9745 91.2309 78.1737 91.4398 77.4076C91.9273 75.4926 92.3799 73.5776 92.171 71.5929C92.1014 70.8965 91.9621 70.4787 91.022 70.6179C88.4106 71.0009 87.7142 70.1305 88.4106 67.5539C88.4454 67.3798 88.5499 67.2057 88.5847 66.9968C88.6891 66.579 88.5151 66.4049 88.0972 66.3701C86.8786 66.2308 84.5109 67.5539 83.8841 68.6333C82.6306 70.6876 82.0736 72.8115 82.3869 75.214C82.7351 77.9299 81.8298 80.228 79.6014 81.9341C78.8354 82.526 78.1042 83.1179 77.6167 83.9884C77.4426 83.9188 77.3033 83.8143 77.1292 83.7447C77.6515 83.0831 78.1042 82.3171 78.7657 81.76C81.0638 79.845 81.7601 77.4425 81.3075 74.5525C80.9941 72.5678 81.3772 70.6528 82.4914 68.9466C83.0833 68.7029 83.2922 68.2155 83.4663 67.6235C82.7003 67.4843 82.2476 67.8324 81.8646 68.3199C80.5415 68.8422 79.8451 69.9216 79.4273 71.1751C78.9746 72.533 78.7309 73.9606 78.2783 75.3533C77.1989 78.5915 75.5624 81.2725 71.6627 81.5859C71.4886 81.3422 71.593 81.0985 71.7323 80.8895C73.5777 80.7154 74.9008 79.7405 75.8409 78.1737C76.8507 76.4675 77.4078 74.5873 77.7211 72.6723C78.0693 70.618 78.8702 68.8422 80.5067 67.5191C82.1083 66.7879 83.9189 66.4049 85.3117 65.2558ZM163.515 160.799C163.445 161.844 163.411 162.888 163.341 163.933C163.132 164.107 163.132 164.316 163.236 164.525C163.167 165.465 163.097 166.44 163.028 167.38C162.784 167.763 162.819 168.146 162.888 168.564C162.505 170.862 162.296 173.16 162.192 175.493C161.983 175.667 161.983 175.876 162.087 176.084C161.844 177.791 161.565 179.532 161.321 181.238C160.73 181.307 160.834 181.725 160.834 182.108C160.242 184.337 159.65 186.565 159.093 188.793C158.78 190.047 158.014 191.057 157.004 191.788C155.82 192.623 154.984 193.772 154.079 194.852C152.303 196.941 152.06 199.727 150.562 201.92C150.319 202.268 150.04 202.756 150.388 203.104C150.841 203.522 151.294 203.174 151.642 202.86C153.313 201.537 154.253 199.727 154.95 197.812C155.054 197.498 155.019 197.08 155.437 197.045C155.82 197.045 155.82 197.394 155.82 197.672C155.89 200.179 155.82 202.686 154.775 205.019C154.358 205.924 154.044 206.899 153.801 207.874C153.592 208.675 153.522 209.545 154.323 210.137C156.447 211.669 158.814 211.008 161.147 210.973C162.053 209.441 163.898 208.64 164.351 206.725C165.117 203.208 166.266 199.796 166.37 196.14C166.544 190.604 167.624 185.242 169.678 180.089C170.409 178.208 171.21 176.363 171.384 174.309C171.628 174.169 171.663 173.961 171.593 173.717C172.08 172.22 172.359 170.688 172.603 169.121C172.812 168.981 172.846 168.773 172.777 168.529C173.125 167.415 173.438 166.266 173.473 165.082C173.717 164.803 173.682 164.49 173.578 164.176C173.787 163.236 173.856 162.296 173.787 161.321C173.856 160.869 173.995 160.416 173.961 159.928C173.961 159.441 174.309 158.779 173.717 158.536C173.264 158.362 172.742 158.745 172.394 159.162C172.255 159.197 172.15 159.267 172.011 159.302C171.663 159.302 171.419 159.441 171.21 159.72C170.653 159.859 170.096 159.963 169.643 160.312C168.773 160.451 167.937 160.625 167.067 160.764C166.022 160.625 164.977 160.486 163.898 160.346C163.759 160.312 163.619 160.207 163.55 160.242C163.341 160.346 163.376 160.52 163.48 160.729L163.515 160.799ZM145.305 113.55C144.852 113.689 144.643 114.107 144.399 114.455C142.554 116.927 141.544 119.782 140.813 122.742C138.828 130.924 138.794 139.281 139.351 147.568C140.082 157.979 141.196 168.355 142.171 178.766C142.38 181.203 142.415 181.133 144.678 180.715C149.379 179.88 154.044 179.079 158.78 178.348C160.172 178.139 160.59 177.582 160.66 176.224C160.834 172.637 161.043 169.016 161.739 165.465C162.018 163.968 162.227 162.435 162.192 160.869C162.192 159.963 161.948 159.267 161.182 158.605C159.755 157.387 158.64 155.855 157.805 154.149C156.76 152.129 157.039 150.214 158.536 148.543C159.093 147.916 159.789 147.359 160.486 146.837C161.043 146.419 161.287 145.966 161.252 145.27C161.078 143.355 160.973 141.44 160.799 139.525C160.799 139.142 160.799 138.689 160.451 138.48C158.257 137.157 157.805 134.894 157.457 132.665C157.074 130.123 157.282 127.582 158.292 124.831C158.919 126.328 158.849 127.582 158.954 128.8C159.128 130.855 158.954 132.944 159.58 134.963C160.242 137.052 161.182 137.54 163.306 136.948C166.022 136.182 168.773 135.416 171.628 135.312C174.1 135.207 174.413 134.72 174.97 132.247C175.98 127.86 174.796 123.752 173.404 119.678C172.429 116.892 170.444 114.908 167.798 113.55C165.256 112.296 162.54 111.426 160.103 109.963C159.441 109.58 159.267 109.998 159.023 110.416C156.203 114.873 151.886 116.649 146.906 117.206C145.2 117.38 144.782 116.788 145.34 115.186C145.514 114.734 145.618 114.281 145.757 113.828C145.862 113.689 146.036 113.515 145.792 113.341C145.583 113.167 145.479 113.41 145.34 113.515L145.305 113.55ZM118.912 61.1124C119.817 58.7795 119.574 56.4466 118.773 54.2182C117.972 51.9202 116.649 51.6416 114.734 53.1388C112.087 55.1932 110.172 54.845 108.501 51.8854C107.282 49.7614 106.133 47.6026 104.392 45.8269C102.965 44.3993 101.502 43.5985 99.3785 44.5386C96.3841 45.8617 93.2156 46.384 89.9426 45.8617C88.7588 45.6876 88.4106 46.0706 88.3757 47.15C88.0972 51.3631 89.3507 55.2976 90.7434 59.1625C91.0916 60.1375 91.1961 60.9731 91.1265 61.9132C90.9175 64.1416 89.6641 66.0218 89.1766 68.1458C88.8632 69.5037 89.1418 69.9216 90.4997 69.9912C91.0568 69.9912 91.8228 69.6082 92.171 70.0957C92.9719 71.2447 93.2156 72.7071 94.1209 73.8213C94.3298 74.065 94.2253 74.7962 94.6084 75.0748C95.2699 75.5274 95.444 76.189 95.6181 76.8854C96.3493 79.4271 97.6028 80.3324 100.214 79.845C104.567 79.0441 108.536 77.338 111.6 73.9954C111.704 74.1347 111.844 74.2391 111.948 74.3784C111.391 75.4578 110.451 76.189 109.581 76.955C108.884 77.0594 108.397 77.5121 108.014 78.0692C107.77 78.2085 107.282 78.0692 107.422 78.6263C106.795 78.3478 106.482 78.7656 106.238 79.253C105.89 79.462 106.133 79.6709 106.238 79.8798C106.133 80.3324 105.959 80.7851 105.925 81.2377C105.785 82.4216 105.924 83.5009 106.934 84.3366H106.969C106.656 84.8937 107.178 85.1026 107.422 85.416C107.491 86.3909 108.257 86.4606 108.954 86.5998C110.416 87.5748 112.053 87.5748 113.689 87.4007C115.918 87.1569 118.007 86.3909 119.957 85.3464C123.647 83.3965 126.677 80.8547 127.269 76.3283C127.408 75.2489 127.268 74.4132 126.642 73.5079C124.622 70.5831 123.612 67.345 123.578 63.7586C123.543 60.6946 124.204 57.7349 124.622 54.7405C125.423 48.8213 125.876 42.8673 124.344 36.9829C123.752 34.7196 122.812 32.6305 121.245 30.8547C120.966 30.5414 120.792 29.9843 120.096 30.4021C119.016 31.0636 118.529 30.3325 118.424 29.4272C118.32 28.5915 117.902 28.2433 117.241 28.0344C116.649 27.8255 116.057 27.5817 115.465 27.4773C106.621 26.1193 98.6474 28.104 91.788 33.9188C89.873 35.5205 88.2017 37.4007 87.3312 39.838C86.4956 42.1012 87.3312 43.5985 89.6641 44.0859C92.6237 44.7475 95.6181 44.7475 98.5081 43.7377C101.92 42.5539 104.288 44.0511 106.447 46.384C107.874 47.916 108.814 49.7266 109.72 51.6068C110.66 53.5218 111.983 53.9049 113.863 52.8603C114.281 52.6166 114.664 52.3032 115.047 52.0246C116.753 50.6667 118.32 50.9452 119.26 52.8603C120.583 55.5413 120.688 58.3269 119.469 61.0776L118.912 61.0079V61.1124ZM108.327 185.799C114.629 185.938 118.877 185.903 123.09 185.59C129.044 185.172 134.998 184.685 140.952 184.267C141.684 184.197 142.032 183.988 141.718 183.188C140.639 180.472 140.569 177.547 140.221 174.692C139.142 164.838 138.376 154.949 137.993 145.026C137.679 137.401 137.784 129.81 139.734 122.359C140.674 118.807 141.892 115.36 144.643 112.714C145.618 111.774 145.479 111.426 144.295 111.043C140.569 109.859 137.714 107.561 136.113 104.009C134.824 101.189 132.874 98.7865 131.482 96.0706C128.522 90.2907 126.189 84.4759 130.924 78.3477C132.561 76.2238 132.317 76.0497 129.567 75.3533C128.487 75.0748 128.139 75.3533 128.104 76.4675C127.965 79.7057 126.502 82.2475 124.03 84.267C121.175 86.5998 117.902 88.0622 114.246 88.6193C110.207 89.2461 106.099 87.5399 105.228 82.9438C105.124 82.3519 104.845 82.0385 104.253 82.1778C100.214 83.2224 96.0359 83.8143 92.0666 85.0678C91.3006 85.3115 91.1613 85.6597 91.5095 86.3561C91.9273 87.1918 92.3451 88.0622 92.6585 88.9327C93.3201 90.7433 92.9022 91.5441 91.022 91.8923C90.1167 92.0664 89.8382 92.4146 90.256 93.2502C90.4997 93.7377 90.7435 94.4341 90.3256 94.7475C89.1766 95.6527 89.5944 97.3589 88.4106 98.1945C88.2365 98.299 88.2365 98.7168 88.2365 98.9954C88.0972 101.259 87.2267 102.129 84.8938 102.199C82.6306 102.234 80.5067 101.642 78.4872 100.667C77.8952 100.388 77.373 100.11 77.3381 101.119C77.164 104.218 78.0345 107.039 79.8451 109.476C81.0289 111.078 82.6307 112.366 84.2323 113.619C86.9134 115.674 89.3158 118.041 91.3702 120.688C96.4885 127.268 98.1599 134.302 94.8173 142.275C92.6933 147.324 91.8577 152.617 92.554 158.118C92.7281 159.58 92.7978 161.078 92.8326 162.575C93.0763 169.295 93.1459 176.05 94.1557 182.735C94.2253 183.292 94.295 183.954 94.1209 184.441C93.5986 185.834 94.2254 186.078 95.444 186.043C100.388 185.834 105.367 185.625 108.223 185.729L108.327 185.799ZM51.5721 171.036C51.5721 173.578 51.5721 178.174 51.5721 182.735C51.5721 183.605 51.7463 184.162 52.7908 183.884C57.4566 182.526 62.2267 182.839 66.9621 183.396C75.0053 184.337 83.0136 185.033 91.1265 184.58C92.4496 184.511 92.8326 184.128 92.6585 182.874C92.4844 181.656 92.3451 180.402 92.2406 179.149C91.6835 173.02 91.6836 166.857 91.1265 160.729C90.4649 153.661 91.3354 146.941 94.1209 140.395C95.3047 137.61 95.5833 134.65 94.9914 131.621C93.7379 125.04 89.873 120.13 85.0331 115.813C84.4064 115.256 84.0234 115.256 83.6752 116.091C82.9788 117.763 81.9691 119.295 80.9941 120.827C80.5067 121.628 79.8103 122.046 79.2184 121.036C78.139 119.19 76.398 118.181 74.6919 117.032C71.9412 115.186 69.3994 113.062 66.9621 110.799C66.7184 110.59 66.5443 110.207 66.1264 110.346C65.7086 110.486 65.8827 110.903 65.8131 111.217C65.6738 112.331 65.5345 113.41 64.9426 114.385C64.3507 115.325 64.0025 116.335 63.8632 117.484C63.2365 122.812 59.5457 125.562 55.1237 127.617C54.5318 127.895 54.1836 128.069 54.1836 128.8C54.2184 131.76 53.6961 134.65 53.3131 137.54C51.9552 147.986 50.0053 158.396 51.5025 171.001L51.5721 171.036ZM133.014 92.2405C133.014 94.5734 133.814 96.6625 134.615 98.7516C136.739 104.149 139.525 108.849 145.688 110.555C147.394 111.043 148.961 111.217 150.528 110.242C154.427 107.839 156.725 104.462 156.969 99.831C157.004 99.0998 157.178 98.7516 157.944 98.8561C158.675 98.9605 159.267 98.6124 159.789 98.1597C160.973 97.15 161.635 92.5539 160.869 91.1611C160.416 90.3603 159.65 90.0469 158.78 90.1514C158.014 90.2558 157.7 90.8477 157.561 91.5789C157.491 92.1361 157.317 92.6931 157.178 93.2502C157.074 93.5636 156.934 93.9118 156.516 93.9118C156.203 93.9118 156.029 93.6333 155.89 93.3547C155.681 92.9369 155.472 92.4842 155.333 92.0316C154.601 90.0817 153.626 88.2711 152.164 86.8087C151.955 86.5998 151.677 85.8338 151.224 86.4606C150.562 87.3659 149.796 86.948 148.996 86.7739C148.438 86.6695 147.881 86.1124 147.359 86.5302C146.14 87.4703 144.782 87.4007 143.39 87.3659C143.076 87.3659 142.693 87.1918 142.554 87.6792C142.275 88.7934 141.37 88.7586 140.5 88.8631C138.619 89.1416 136.879 88.4104 135.172 87.8881C134.406 87.6444 134.093 87.8881 133.78 88.4104C133.014 89.5943 132.874 90.9174 133.014 92.2405ZM132.352 95.1653C132.631 94.6778 132.422 94.2252 132.422 93.7725C132.352 92.0316 132.143 90.2906 132.84 88.6541C133.466 87.1221 134.093 86.8784 135.73 87.2266C137.157 87.54 138.585 87.9926 140.117 87.9926C141.579 87.9926 141.579 88.0622 141.196 86.5302C142.693 86.7391 144.121 86.6347 145.514 86.4606C145.618 85.6597 144.574 85.6946 144.887 84.8937C146.21 85.2767 147.533 85.7294 148.856 86.0775C149.274 86.182 150.075 86.5302 150.005 85.6597C149.866 83.9188 150.736 84.7196 151.328 85.1026C153.383 86.4257 154.706 88.3408 155.576 90.5692C155.82 91.1611 155.89 91.8575 156.551 92.4494C156.899 91.3004 156.83 90.0817 157.979 89.4898C159.163 88.8979 160.172 89.4898 161.391 89.9773C160.938 86.1124 160.799 82.3519 159.093 78.87C157.631 75.9104 155.402 73.8561 152.268 72.8115C146.593 70.8617 141.092 71.4536 136.078 74.6569C131.725 77.4425 128.557 82.0734 129.88 87.8185C130.333 89.8032 130.716 91.7878 131.516 93.6333C131.725 94.1207 131.656 94.7823 132.352 95.1305V95.1653ZM146.976 116.022C150.736 115.5 154.079 114.176 156.725 111.321C158.71 109.197 158.675 109.232 156.969 106.934C156.238 105.959 155.959 106.098 155.298 107.004C153.383 109.58 151.189 111.844 147.638 112.018C147.255 112.018 146.976 112.227 146.976 112.61C146.976 113.55 146.628 114.385 146.314 115.256C146.14 115.848 146.349 116.057 146.941 116.022H146.976ZM90.7434 83.2572C90.7434 84.267 90.8827 84.5107 91.5791 84.267C95.1655 83.0135 98.8563 82.2823 102.617 81.7948C103.278 81.6904 104.009 81.5511 104.706 81.377C105.507 81.1681 106.029 80.4717 105.82 79.7753C105.576 78.87 104.88 79.5664 104.427 79.7405C103.209 80.1583 101.99 80.611 100.702 80.8199C97.3939 81.3422 95.7226 80.2628 94.8869 76.9898C94.7128 76.2586 94.3646 75.6667 93.8075 75.1792C93.5638 74.9703 93.4245 74.5525 93.0067 74.7266C92.6933 74.8659 92.7629 75.214 92.7281 75.4926C92.5192 77.0246 92.1362 78.5218 91.5791 79.9494C91.1613 81.0288 90.8131 82.143 90.7434 83.2921V83.2572ZM61.1126 54.3923C60.9385 53.3478 60.8688 52.3032 60.5902 51.2934C60.3117 50.2141 58.6056 49.5177 57.6655 50.0051C55.054 51.3283 54.0095 55.9244 55.8549 58.1876C56.2379 58.675 56.6905 59.0581 57.4914 58.4661C58.6056 57.6305 59.6153 56.6904 60.5902 55.7154C60.9384 55.3673 61.1822 54.9494 61.1126 54.4272V54.3923ZM52.9301 60.5901C52.9301 60.1723 52.5819 60.033 52.3382 59.8241C49.1348 56.8645 48.8911 53.8352 51.7114 50.5623C52.0248 50.1792 52.2685 49.7962 52.373 49.3088C52.4426 49.0302 52.6167 48.7517 52.373 48.4731C52.0944 48.1598 51.7462 48.4035 51.4677 48.5079C48.4384 49.5873 46.8716 52.0943 47.2198 55.3673C47.4635 57.6653 50.249 60.2419 52.9301 60.5553V60.5901ZM51.2239 81.8645C51.398 85.2767 52.5123 86.8088 55.5067 87.7489C56.6209 88.0971 57.561 88.689 58.5011 89.3854C59.4761 90.0817 60.451 90.8826 61.6696 91.1959C62.2267 91.3352 63.0276 91.4397 63.2017 90.8478C63.4106 90.1514 62.5401 90.1862 62.1223 90.0469C58.2226 88.8631 54.9844 86.7739 52.5471 83.4661C52.1641 82.9438 52.0596 82.2127 51.2588 81.8645H51.2239ZM56.412 49.6221C55.0889 49.5177 53.522 49.6221 53.1042 50.8408C52.4774 52.721 52.9301 54.7405 54.0095 56.5511C53.9398 53.9397 54.7058 51.6765 56.4468 49.657L56.412 49.6221ZM55.4719 59.8937C52.9649 57.9439 52.1641 55.2976 51.8855 52.2335C50.3883 54.253 50.4928 56.7948 52.1293 58.501C52.8953 59.3018 53.6613 60.6946 55.4371 59.8937H55.4719ZM63.8632 54.7753C65.0819 52.9648 64.4551 48.9954 62.8186 47.7071C62.3312 47.3241 61.983 47.4982 61.7741 47.916C61.4955 48.4731 61.217 49.1695 61.5652 49.7266C62.6446 51.2586 63.1668 53.0344 63.8632 54.7753ZM49.6919 69.7127C50.4231 69.1207 50.0053 67.8324 50.8409 68.0762C51.5025 68.2503 50.5972 69.1555 50.8061 69.7475C50.8061 69.7823 50.8409 69.8171 50.9106 69.8867C53.4524 68.0762 53.6613 65.8478 52.0944 63.2712C50.6668 65.0469 49.8312 67.1012 49.7267 69.7127H49.6919ZM152.791 206.725C153.522 205.298 154.079 203.94 154.427 202.512C154.567 201.885 155.333 200.98 154.775 200.701C154.149 200.423 154.079 201.642 153.592 202.025C152.094 203.278 151.537 204.671 152.791 206.69V206.725ZM162.122 141.266C162.923 139.977 164.316 139.281 165.465 138.027C160.904 139.002 161.809 138.236 162.122 141.266ZM166.927 143.459C166.927 143.459 166.823 143.181 166.788 143.041C165.36 143.181 164.072 144.156 162.505 143.598C161.913 143.39 162.262 144.33 162.192 144.713C162.157 145.13 162.192 145.722 162.888 145.409C164.246 144.782 165.604 144.121 166.927 143.459ZM61.6696 57.3868C63.2713 56.2029 63.3757 55.4717 62.5401 53.487C61.7044 54.6012 62.2964 55.9244 61.6696 57.3868ZM60.4858 57.0386C59.5109 57.2127 59.3019 58.1528 58.6404 58.5706C58.3618 58.7447 57.9092 59.0581 58.2922 59.4759C58.6404 59.8241 59.1278 59.7196 59.4412 59.3714C59.9983 58.7447 60.4161 58.0483 60.4858 57.0386ZM64.0721 92.6932C64.0025 92.3101 64.3159 91.6834 63.6543 91.7182C63.2713 91.7182 62.5401 91.8923 62.5749 92.4146C62.6098 92.9369 63.0624 93.5636 63.6195 93.6333C64.2114 93.7377 63.9677 93.0065 64.107 92.6583L64.0721 92.6932ZM167.554 143.076C167.554 143.076 167.728 143.007 167.798 142.972C167.728 142.937 167.693 142.867 167.624 142.832C167.624 142.832 167.519 142.832 167.519 142.867C167.519 142.937 167.519 143.007 167.554 143.076Z"></path>
<path fill="#AD8B3A" d="M23.0905 148.995C24.2047 147.498 25.3538 146.001 26.468 144.503C27.9304 142.519 28 140.186 28.1393 137.888C28.209 136.983 28.1393 136.042 28.2089 135.137C28.383 133.466 29.4276 132.944 30.9596 133.71C32.2131 134.336 32.4568 135.485 32.5613 136.739C32.747 138.967 33.7799 139.443 35.6602 138.166C36.7396 137.435 37.8538 136.809 39.1073 136.356C44.0516 134.545 48.4387 137.017 49.2744 142.205C49.6226 144.503 49.5181 146.802 49.2047 149.1C48.8914 151.293 47.6379 152.616 45.6532 153.452C43.8078 154.253 41.8928 154.671 39.9429 154.845C38.4457 154.984 38.3413 155.68 38.4805 156.899C39.0028 161.53 40.2563 165.952 41.649 170.374C42.5543 173.229 43.5293 176.015 44.4346 178.87C45.4443 182.108 45.4791 185.276 43.9819 188.445C42.8677 190.813 43.7034 194.538 45.6532 196.314C46.3496 196.976 47.1505 197.115 48.0558 196.802C49.3092 196.384 50.3886 195.687 51.2591 194.712C51.5376 194.399 51.7813 194.26 52.2688 194.086C51.2242 196.21 49.6922 197.533 47.6031 198.125C46.4889 198.438 45.4443 198.02 44.6087 197.15C42.0321 194.538 41.3008 190.743 42.9025 187.435C44.1908 184.754 44.156 182.038 43.2507 179.288C41.5098 173.821 39.4554 168.494 38.1671 162.888C37.6797 160.764 37.227 158.64 37.0878 156.481C37.0181 155.576 36.7744 155.228 35.7995 155.263C29.9499 155.367 26.2243 158.152 24.3092 163.758C22.7772 168.215 23.2299 172.568 24.553 176.955C25.2145 179.079 25.7716 181.203 26.3287 183.361C27.1992 186.774 27.3036 190.221 26.6421 193.668C25.9805 197.115 26.1895 200.562 27.0599 203.974C27.3385 205.054 26.9206 206.586 27.6867 207.108C28.5223 207.665 29.6365 206.481 30.6811 206.203C37.4708 204.322 45.1658 208.361 47.429 215.047C47.9513 216.579 47.9512 218.18 47.4638 219.747C47.1504 220.757 46.7674 221.767 46.28 222.707C43.8774 227.198 46.4192 230.332 50.5975 232.108C51.3635 232.421 51.8858 233.048 52.5822 233.431C50.1797 232.386 47.4986 231.795 45.7577 229.601C44.4694 227.964 43.9471 226.084 44.6087 224.03C45.0613 222.672 45.5836 221.314 46.071 219.956C46.663 218.285 46.5933 216.648 45.8969 215.047C43.39 209.023 35.4513 205.646 29.5669 208.118C28.2437 208.675 27.0599 209.302 27.1644 211.112C27.234 212.331 26.4332 213.375 25.9457 214.455C25.702 215.012 25.1797 215.325 24.6574 215.534C23.5084 215.987 22.7424 215.395 22.9513 214.141C23.2298 212.574 24.0655 211.251 25.11 210.102C26.0501 209.058 26.2591 207.944 25.9805 206.655C25.5627 204.671 25.1449 202.686 24.727 200.736C24.2047 198.368 24.4833 196.001 24.9011 193.703C25.7716 189.107 25.0056 184.719 23.7521 180.332C22.8468 177.198 21.8719 174.065 21.6978 170.757C21.6978 170.2 21.4889 169.782 20.9666 169.434C18.9471 168.111 18.1463 166.056 17.9025 163.793C17.5544 160.52 18.1811 157.386 19.7479 154.427C20.1658 153.626 20.8622 152.86 20.5836 151.815C22.1157 151.502 22.429 150.075 23.1602 148.995H23.0905ZM47.7423 145.095C47.7075 144.329 47.6727 143.459 47.6031 142.588C47.1156 138.271 43.7382 136.077 39.5599 137.366C38.1323 137.818 36.8441 138.584 35.5906 139.385C34.6505 139.977 33.8148 141.3 32.5961 140.743C31.273 140.151 31.8997 138.619 31.6908 137.47C31.5515 136.704 31.6908 135.903 31.273 135.207C30.9248 134.615 30.4025 134.232 29.741 134.371C29.0794 134.51 29.1838 135.172 29.1838 135.694C29.149 136.843 29.1142 137.992 29.1142 139.141C29.1142 141.892 28.2437 144.295 26.5724 146.488C25.1797 148.299 23.9262 150.249 22.6379 152.164C20.0961 155.959 18.5989 159.998 19.2257 164.664C19.3998 166.022 19.8872 167.275 20.7229 168.354C20.897 168.598 21.0711 168.842 21.4192 168.737C21.7674 168.633 21.7326 168.32 21.7675 168.041C21.8023 167.797 21.8023 167.554 21.8371 167.31C22.9861 159.371 27.7911 154.775 35.6602 154.009C38.4457 153.731 41.1616 153.173 43.8426 152.303C46.2103 151.537 47.6379 150.144 47.6379 147.533C47.6379 146.732 47.7424 145.896 47.7772 144.991L47.7423 145.095ZM25.8761 210.868C25.0752 211.878 24.5181 212.644 24.2048 213.549C24.1003 213.863 23.7869 214.211 24.1351 214.455C24.5181 214.698 24.8663 214.281 25.0404 214.002C25.5279 213.166 25.9805 212.296 25.8761 210.903V210.868Z"></path>
</g>
</g>
<defs>
<clipPath id="clip0_2561_397">
<rect fill="white" height="200" width="200"></rect>
</clipPath>
</defs>
</svg>
