<svg xmlns="http://www.w3.org/2000/svg" fill="none" viewBox="0 0 200 200" height="200" width="200">
<g clip-path="url(#clip0_2561_678)">
<path fill="#B5B4B2" d="M104.847 199.956C99.4587 199.956 94.0399 199.956 88.6512 199.956C87.7128 199.956 86.744 199.956 85.8056 199.956H81.9912C81.6582 199.956 81.3554 199.926 81.0224 199.895C65.1593 199.895 49.2962 199.895 33.4331 199.895C32.7973 199.895 32.1616 199.895 31.5258 199.895C25.2593 199.895 19.023 199.895 12.7565 200.138C8.69991 200.289 4.00759 200.834 0.0418091 197.716H197.332C195.273 192.963 193.093 189.875 188.553 188.271C181.196 185.697 173.84 183.397 166.029 182.609C162.154 182.216 158.673 180.46 155.615 178.22C151.619 175.283 147.623 175.223 143.627 177.584C134.333 183.094 123.768 183.76 113.536 185.728C112.476 185.94 111.265 186.091 110.236 185.818C100.942 183.336 91.0428 183.306 82.2939 178.704C77.3291 176.101 72.7578 176.373 67.3389 178.341C55.9562 182.458 44.3616 186.878 31.768 182.973C29.1645 182.155 26.3794 182.549 23.7457 183.154C20.2643 183.941 16.9342 183.487 13.4528 183.154C8.82099 182.7 9.42646 179.976 11.0007 177.887C13.3317 174.829 14.6032 171.287 16.7223 168.23C18.8111 165.233 20.8092 162.175 22.3531 158.906C24.3814 154.607 27.7417 153.456 32.0405 153.668C37.8227 153.941 43.3929 155.394 48.5696 157.725C62.5255 164.022 75.4219 161.6 87.8944 153.85C94.494 149.763 100.821 145.162 108.783 144.011C114.837 143.133 120.044 144.98 124.404 149.188C125.161 149.915 126.129 150.823 125.766 152.034C125.373 153.366 124.101 153.305 122.981 153.275C120.71 153.214 118.864 153.88 118.077 156.181C117.138 158.936 118.773 160.843 120.71 162.266C126.25 166.232 132.729 167.079 139.268 167.11C145.292 167.11 151.286 166.232 157.159 164.869C163.335 163.447 169.541 162.266 176.716 161.993C171.569 153.033 166.756 144.586 161.821 136.201C161.428 135.504 160.277 135.111 159.4 134.838C148.108 131.478 138.602 124.879 129.126 118.249C126.856 116.675 124.676 115.312 121.709 116.826C119.954 117.734 118.258 116.523 116.987 115.373C112.022 110.953 106.179 107.562 102.153 102.113C100.276 99.54 98.6414 99.7217 96.3709 101.78C91.5877 106.17 86.5624 110.317 81.7187 114.646C78.9033 117.159 75.6035 119.157 72.001 119.187C67.5811 119.218 64.1905 120.973 60.588 123.062C55.5022 125.999 49.5686 125.635 43.9378 126.271C41.5463 126.544 41.8793 124.969 42.7269 123.486C44.1498 121.004 45.6029 118.552 47.0257 116.099C53.6252 104.717 60.1945 93.334 66.8546 81.9816C68.005 80.0441 68.3682 78.6213 66.9151 76.4719C62.8888 70.5686 62.6163 64.181 66.3399 58.0961C70.003 52.102 75.5733 48.9839 82.748 49.771C84.9277 50.0132 85.8358 49.1353 86.7743 47.44C90.074 41.4762 93.4647 35.5729 96.9763 29.7302C97.7937 28.3376 98.0056 25.8552 100.064 26.0066C101.578 26.1277 102.153 28.1863 102.91 29.5486C111.78 44.9273 120.62 60.3061 129.49 75.6848C135.363 85.8263 141.296 95.9375 147.078 106.14C147.654 107.169 149.712 108.652 147.865 109.682C146.352 110.499 145.777 108.319 145.08 107.139C130.791 82.2844 116.533 57.4301 102.244 32.5759C101.699 31.6374 101.033 30.82 99.9431 29.2458C95.9168 36.2087 92.1629 42.7779 88.3787 49.2866C86.8651 51.9204 89.6502 51.7388 90.5584 52.3745C100.185 59.0951 101.366 72.1429 92.6776 79.8625C86.6835 85.1906 79.872 85.6447 72.8184 81.9816C71.002 81.0431 70.003 80.6799 68.7921 82.8595C61.3752 95.9678 53.8371 108.985 46.3294 122.063C46.1175 122.427 46.1175 122.941 45.9661 123.668C51.8694 123.516 57.4396 123.002 62.2833 119.399C63.7062 118.34 65.2501 117.25 67.0362 117.401C74.2412 117.946 79.2968 114.011 84.2011 109.56C87.8339 106.261 91.6786 103.203 95.2811 99.8428C98.49 96.8457 101.305 97.4209 103.757 100.539C107.723 105.625 113.142 109.016 117.925 113.163C119.318 114.344 120.68 115.191 122.618 114.192C124.918 113.012 127.007 114.071 128.854 115.343C139.147 122.457 149.379 129.692 161.579 133.355C163.063 133.809 163.819 134.96 164.546 136.231C169.178 144.344 173.87 152.457 178.593 160.51C179.804 162.599 180.682 164.748 177.109 164.597C168.239 164.234 159.884 167.019 151.317 168.442C142.265 169.955 133.334 170.076 124.555 167.079C121.952 166.201 119.651 164.869 117.804 162.811C113.566 158.028 115.08 153.305 122.103 150.459C116.836 145.616 110.963 145.525 104.787 147.432C98.7927 149.279 93.7976 153.002 88.5301 156.211C75.6943 164.052 62.465 166.413 48.2064 160.147C42.9994 157.846 37.4896 156.272 31.6772 156.06C28.4077 155.939 26.0464 156.877 24.3511 160.086C21.1724 166.111 17.6002 171.923 14.0885 177.766C12.7565 179.976 12.9382 181.247 15.8141 181.247C18.0846 181.247 20.2642 181.61 22.6861 181.005C26.8032 179.976 31.1323 180.339 35.4008 181.368C41.2435 182.791 46.9954 182.367 52.717 180.46C58.7111 178.462 65.0685 177.705 70.7901 174.738C73.5752 173.285 76.8447 173.861 79.539 175.344C88.3788 180.127 98.2175 181.822 107.814 183.094C118.531 184.517 129.399 181.822 139.147 177.069C146.231 173.618 152.346 172.317 158.915 177.554C161.276 179.431 164.243 180.188 167.331 180.46C176.262 181.277 184.647 184.305 192.851 187.635C197.09 189.36 198.119 194.204 199.814 197.958C200.813 200.138 197.816 199.714 196.484 199.744C186.645 199.865 176.837 199.744 166.998 199.956C155.343 200.198 143.688 199.956 132.002 200.319C124.252 200.561 116.321 200.138 108.48 200.077C107.209 200.077 105.937 200.077 104.666 200.077L104.847 199.956ZM96.6433 67.0267C96.7644 58.6713 90.2557 51.7993 81.9912 51.5269C73.2725 51.2544 65.9767 58.1869 65.9464 66.7542C65.9161 75.3215 72.5762 82.0422 81.2343 82.1633C89.8319 82.3146 96.5222 75.7151 96.6736 66.9964L96.6433 67.0267Z"></path>
</g>
<defs>
<clipPath id="clip0_2561_678">
<rect fill="white" height="200" width="200"></rect>
</clipPath>
</defs>
</svg>
